<svg xmlns="http://www.w3.org/2000/svg" viewBox="0 0 148.09 148.33"><g id="Layer_2" data-name="Layer 2"><g id="svg2"><path id="rect8528-63-2-4-3-6-0-4-3-6-3" d="M.83,0H147.27a.83.83,0,0,1,.82.83V147.51a.82.82,0,0,1-.82.82H.83a.82.82,0,0,1-.83-.82V.83A.83.83,0,0,1,.83,0Z" style="fill:#48773e;fill-rule:evenodd"/><g id="text6065-3-2-9-6-6-5-5"><path id="path2462" d="M51.93,22.39a6,6,0,0,1-.08,1,2.44,2.44,0,0,1-.37.94,2.79,2.79,0,0,1-.43.5,3,3,0,0,1-.56.41,3.44,3.44,0,0,1-.65.28,2.49,2.49,0,0,1-.7.11,3.38,3.38,0,0,1-1.53-.35,2.56,2.56,0,0,1-1-.9,3.58,3.58,0,0,1-.41-1,6.28,6.28,0,0,1-.07-1V16a4.48,4.48,0,0,1,.09-.94,3.19,3.19,0,0,1,.45-.91,2.57,2.57,0,0,1,1-.82,2.52,2.52,0,0,1,1.29-.36,2.94,2.94,0,0,1,3,3v.67H50.15V16a1.3,1.3,0,0,0-.3-.88,1,1,0,0,0-.84-.36,1,1,0,0,0-.82.36,1.4,1.4,0,0,0-.28.88v6.92a1.72,1.72,0,0,0,.26.64,1,1,0,0,0,.86.37c.43,0,.71-.11.84-.34a2.22,2.22,0,0,0,.25-.48,2.64,2.64,0,0,0,0-.45V22h1.78Z" style="fill:#fff"/><path id="path2464" d="M58.53,25.54H53.19V13H55V23.75h3.55Z" style="fill:#fff"/><path id="path2466" d="M58.94,25.54V13h1.77V25.54Z" style="fill:#fff"/><path id="path2468" d="M68.53,25.54V17.92l-1.79,5.34h-.9l-1.77-5.34v7.62h-1.8V13H64l2.37,6.67L68.66,13H70.3V25.54Z" style="fill:#fff"/><path id="path2470" d="M70.63,25.54,73.43,13H75l2.8,12.51H75.86l-.5-2.69H73l-.52,2.69Zm2.73-4.35H75l-.84-4.55Z" style="fill:#fff"/><path id="path2472" d="M79.41,25.54V14.69H77.3V13h6v1.66H81.18V25.54Z" style="fill:#fff"/><path id="path2474" d="M89.54,23.75v1.79H84.18V13h5.36v1.65H86v3.69h3.13v1.7H86v3.68Z" style="fill:#fff"/><path id="path2476" d="M45.39,42.79l2.8-12.51h1.54l2.8,12.51H50.61l-.5-2.69H47.79l-.52,2.69Zm2.72-4.35h1.68L49,33.88Z" style="fill:#fff"/><path id="path2478" d="M59.12,39.63a6.17,6.17,0,0,1-.07,1,2.38,2.38,0,0,1-.38.93,2.48,2.48,0,0,1-.43.51,3.12,3.12,0,0,1-.56.41,3.85,3.85,0,0,1-.65.28,2.48,2.48,0,0,1-.69.11,3.26,3.26,0,0,1-1.53-.36,2.34,2.34,0,0,1-1-.89,3.3,3.3,0,0,1-.41-1,6.36,6.36,0,0,1-.08-1V33.19a4.27,4.27,0,0,1,.1-.93,2.84,2.84,0,0,1,1.4-1.74,2.61,2.61,0,0,1,1.29-.35,2.94,2.94,0,0,1,3,3v.67H57.35v-.67a1.28,1.28,0,0,0-.3-.87,1.14,1.14,0,0,0-1.66,0,1.32,1.32,0,0,0-.28.87v6.93a1.53,1.53,0,0,0,.26.63,1,1,0,0,0,.86.38.93.93,0,0,0,.84-.34,2.07,2.07,0,0,0,.24-.49,1.78,1.78,0,0,0,0-.44v-.64h1.77Z" style="fill:#fff"/><path id="path2480" d="M62.1,42.79V31.94H60V30.28h6v1.66H63.88V42.79Z" style="fill:#fff"/><path id="path2482" d="M66.92,42.79V30.28H68.7V42.79Z" style="fill:#fff"/><path id="path2484" d="M70.62,31.46a3.09,3.09,0,0,1,1.09-.94,3,3,0,0,1,1.38-.35,3,3,0,0,1,1.29.28,2.9,2.9,0,0,1,1,.76,2.69,2.69,0,0,1,.56,1,3.85,3.85,0,0,1,.15,1.1v6.37a3.75,3.75,0,0,1-.11,1,2.77,2.77,0,0,1-.45,1,2.72,2.72,0,0,1-1,.9,2.81,2.81,0,0,1-1.42.37,3.41,3.41,0,0,1-.85-.11,3.83,3.83,0,0,1-.77-.34,3,3,0,0,1-.63-.47,1.84,1.84,0,0,1-.41-.54,3.47,3.47,0,0,1-.34-.93,5,5,0,0,1-.06-.82V33.32a3.73,3.73,0,0,1,.12-1,3,3,0,0,1,.42-.87Zm3.48,1a1.12,1.12,0,0,0-1-.53,1.28,1.28,0,0,0-.64.19,1.1,1.1,0,0,0-.43.39,2,2,0,0,0-.15.45,2.86,2.86,0,0,0,0,.37v6.57a1.55,1.55,0,0,0,0,.21,2.14,2.14,0,0,0,.3.62,1.08,1.08,0,0,0,.94.39,1.15,1.15,0,0,0,.59-.15,1.05,1.05,0,0,0,.4-.38,1.24,1.24,0,0,0,.16-.41,2.09,2.09,0,0,0,0-.48V33.32a2.1,2.1,0,0,0,0-.52.69.69,0,0,0-.18-.35Z" style="fill:#fff"/><path id="path2486" d="M82.22,42.79l-2.78-7.6v7.6H77.65V30.28h1.7l2.76,7.58V30.28H83.9V42.79Z" style="fill:#fff"/></g><g id="text6075-0-6-9-2-5-9-1"><path id="path2489" d="M14.51,42.94V17.48L10.22,20.7V16.14L14.51,13h4.24V42.94Z" style="fill:#fff"/><path id="path2491" d="M34.81,36.06v.54a6.2,6.2,0,0,1,0,.71,5.78,5.78,0,0,1-2.5,4.56,6.25,6.25,0,0,1-4,1.34,6,6,0,0,1-3.39-1.07A5.64,5.64,0,0,1,22.84,40c-.18-.39-.32-.73-.44-1s-.17-.58-.23-.85a7,7,0,0,1-.13-.84V34.32h4.29v2.46a3.79,3.79,0,0,0,.49,1.29,1.67,1.67,0,0,0,1.61.81,1.78,1.78,0,0,0,1.65-.81,3.74,3.74,0,0,0,.49-2v-4.6a2.47,2.47,0,0,0-.36-1.29,1.5,1.5,0,0,0-.67-.63,1.71,1.71,0,0,0-.85-.22,7.77,7.77,0,0,0-.8,0h-.76v-3.8h.76c1.79,0,2.68-.84,2.68-2.5V19.4a3.75,3.75,0,0,0-.09-.89,1,1,0,0,0-.13-.4,2.14,2.14,0,0,0-.41-.54,1.54,1.54,0,0,0-.58-.44,1.83,1.83,0,0,0-.84-.18,2,2,0,0,0-1.66.71,2.75,2.75,0,0,0-.53,1.74v2.19H22V19.4a6.6,6.6,0,0,1,1.83-4.73,6.35,6.35,0,0,1,7.64-1.12,5.56,5.56,0,0,1,2.14,1.88,6.21,6.21,0,0,1,.94,2,8.35,8.35,0,0,1,.22,2v3.49a4.86,4.86,0,0,1-2.54,4.42,6.19,6.19,0,0,1,2,2.05A5.25,5.25,0,0,1,34.81,32Z" style="fill:#fff"/></g><path id="path8205-2" d="M76.77,66c-21.58-.2-43.31,9.64-56,28.24,24.54,36.06,83.21,39.21,108.77,0C117.2,75.25,97.05,66.2,76.77,66Zm-1.24,5.4a14.54,14.54,0,0,1,2.78.19c.44.12,1.24.29,1.79.38a15.41,15.41,0,0,1,3.72,1.11,2.34,2.34,0,0,0,.86.29,1.05,1.05,0,0,1,.64.3A1.14,1.14,0,0,0,86,74c.21,0,.38.09.38.2s.23.29.51.4a3,3,0,0,1,.75.4c.13.11.72.56,1.3,1a30.05,30.05,0,0,1,3.82,3.51,13.51,13.51,0,0,0,1,1.37,7.32,7.32,0,0,1,1,1.47.89.89,0,0,0,.25.48,17.3,17.3,0,0,1,2.34,6.15c0,1.38-1.19,1.83-2.06.79-1.29-1.53-2.53.14-1.41,1.89.2.31.2.47,0,.71a5.42,5.42,0,0,1-2.29,1.19c-.55,0-1.37,1.09-1.52,2a3.47,3.47,0,0,0,.58,2.59c.28.23.43,1.2.19,1.2a10.46,10.46,0,0,1-2-1.48c-.59-.53-.9-1.06-1.75-3a7.71,7.71,0,0,1-.38-1.11,2,2,0,0,0-1.86-1.58c-1.21,0-1.53.36-1.56,1.75a2.93,2.93,0,0,1-.41,1.71c-.45.62-.5.63-1,.18-1-.79-1.33-1.05-1.55-1.05a.83.83,0,0,1-.49-.29A1.14,1.14,0,0,0,79,94.1a3.49,3.49,0,0,1-2.76-1.78,5,5,0,0,1-.45-1.1,7.47,7.47,0,0,0-2.07-1.49,10.31,10.31,0,0,1-1.13-.68c-1.18-.78-1.59-.74-1.59.14,0,.5.28.88,1.58,2.13,1.74,1.68,2.08,2.36,1.49,3a4.26,4.26,0,0,1-1.9,1,10.74,10.74,0,0,1-1.66-1.51c-1.13-1.14-1.6-1.49-2-1.44s-.47.21-.52.63a1.24,1.24,0,0,0,.15.79.91.91,0,0,1,.22.57c0,.63,1.71,2.76,2.22,2.76a2.09,2.09,0,0,1,.68.44c.67.58.52,1.15-.59,2.29-.84.84-.86.9-1,2.46a6.64,6.64,0,0,1-.3,1.84,2.43,2.43,0,0,0-.33.84,3.49,3.49,0,0,1-.72,1.28,2.26,2.26,0,0,0-.59,1.2,1.76,1.76,0,0,1-.29.92,1.52,1.52,0,0,0-.3.63,2.51,2.51,0,0,1-1.16,1.26.33.33,0,0,0-.29.22c0,.12-.52.27-1.07.32-.91.09-1,0-1.34-.41h0a3.32,3.32,0,0,1-.34-1.78c0-1.08-.07-1.36-.5-1.85a2.89,2.89,0,0,1-.6-1l-.2-1a1.14,1.14,0,0,0-.8-.8c-.38-.16-.69-.37-.69-.47a4.08,4.08,0,0,0-.8-1c-.78-.81-.84-.84-1.73-.71a3.06,3.06,0,0,0-1.26.42,1.71,1.71,0,0,1-1,.3c-.58,0-.73-.12-1-.71a3.34,3.34,0,0,1-.35-1.09,3.56,3.56,0,0,0-.28-1A21.34,21.34,0,0,1,53,94.17c-.09-1.81-.08-1.87.52-2.76a4.68,4.68,0,0,0,.61-1.08c0-.2,1.4-.71,1.7-.62.11,0,.7.14,1.32.24a6.92,6.92,0,0,1,1.7.48,2.63,2.63,0,0,0,.87.3,1.58,1.58,0,0,1,.68.3,1.63,1.63,0,0,0,.84.29.75.75,0,0,1,.55.18,1.92,1.92,0,0,0,.85.29c1.29.21,3-.89,3-1.9A1.47,1.47,0,0,0,64,88.53a1.49,1.49,0,0,1-1-.3,1.45,1.45,0,0,0-.95-.3A1.68,1.68,0,0,1,61,87.52a2.42,2.42,0,0,0-2.63-.13,1.45,1.45,0,0,1-.82.35,2.68,2.68,0,0,0-1,.27,6.12,6.12,0,0,1-1.5.41l-1,.14.07-.56c.05-.5.16-.58,1-.69,1.75-.24,2.68-.64,2.76-1.18s.26-.67,1.33-1.54a7.45,7.45,0,0,1,1.26-.52,3.09,3.09,0,0,1,2.36,0c1.57.39,2.28.26,3.15-.57.36-.35.89-.83,1.18-1.08.6-.51.64-.7.22-1.05S65.65,81.26,65,82a1.55,1.55,0,0,1-1.51.64c-1.1,0-2.56-.62-2.72-1.13-.28-.89,1.31-1.65,3.82-1.83a8.59,8.59,0,0,0,2.16-.31,6.64,6.64,0,0,1,2.9-.28,2.19,2.19,0,0,1-.85.58c-.74.37-.84.49-.84,1.1s.1.7.36.75a6.54,6.54,0,0,0,2.84-1.26,3.2,3.2,0,0,1,1-.53,1,1,0,0,0,.57-.65c.17-.53.13-.65-.48-1.19a3.13,3.13,0,0,1-1.38-2.23c0-1.25-.27-1.37-3.32-1.5A17.51,17.51,0,0,1,65.17,74a1.15,1.15,0,0,0,.68-.33.85.85,0,0,1,.58-.3,1.44,1.44,0,0,0,.72-.29,1.5,1.5,0,0,1,.76-.3,3.57,3.57,0,0,0,1-.3A8.87,8.87,0,0,1,70.63,72c.61-.11,1.5-.29,2-.4A16.69,16.69,0,0,1,75.53,71.41ZM59.61,78c.72,0,.6.87-.21,1.49s-1.53.67-1.53.19A2.89,2.89,0,0,1,59.61,78Zm-1.84,3.82a1.71,1.71,0,0,1,.32,0c.44.07.34.2-1,1.47-1.57,1.5-1.82,1.67-1.83,1.26a5,5,0,0,1,.45-1.18A2.75,2.75,0,0,1,57.77,81.78Zm39.43,10a1.14,1.14,0,0,1,.42.34c.46.5.5,5.42,0,5.42a.59.59,0,0,1-.44-.25c-.9-1.43-1.15-3.1-.57-3.85a2.05,2.05,0,0,0,.29-1C97,91.91,97,91.71,97.2,91.75ZM80.7,96.51c.16,0,.3,0,.3.08s-.14.13-.3.19-.3,0-.3-.08S80.54,96.51,80.7,96.51ZM93.25,98.8a.45.45,0,0,1,.22,0c.16.06.24.19.18.29a.33.33,0,0,1-.55,0C92.94,99,93.05,98.83,93.25,98.8Zm-20.92,1.5c.21,0,.08.93-.23,1.49a9,9,0,0,0-.48,1.1c-.12.38-.16.22-.17-.65s.07-1.23.38-1.55A1.83,1.83,0,0,1,72.33,100.3Zm23.34,0c.22,0,.41.31.6.87a1.54,1.54,0,0,1,0,1.49,25.25,25.25,0,0,1-1.48,2.89,10.78,10.78,0,0,0-.58,1,1.09,1.09,0,0,1-.35.49,4.74,4.74,0,0,0-.73.92,2.78,2.78,0,0,1-.75.85c-.1,0-.17.13-.17.3a.36.36,0,0,1-.35.32c-2,.11-2.43.07-2.52-.27s-.79-.46-1.19,0a1.36,1.36,0,0,1-.82.3c-.43,0-.51-.09-.51-.56a1.84,1.84,0,0,0-.29-1,3,3,0,0,1-.3-1.54,3.74,3.74,0,0,1,1.41-3,11.54,11.54,0,0,1,3.54-1.3,12.22,12.22,0,0,0,4-1.56A.66.66,0,0,1,95.67,100.33Zm-8,11.55c.29,0,.5.12.57.31s.1.34.07.35a4.51,4.51,0,0,0-.45.28,8.35,8.35,0,0,1-.95.49c-.3.13-.55.3-.55.37s-.26.2-.58.27a1.71,1.71,0,0,0-.82.42.84.84,0,0,1-.53.28,1.82,1.82,0,0,0-.72.25A17.8,17.8,0,0,1,80.1,116c-1.54.35-7.12.55-7.77.27h0a8.74,8.74,0,0,0-1.5-.31c-1.18-.16-1.39-.32-1.39-1.11,0-.55,1.1-1.78,1.61-1.78a1.75,1.75,0,0,0,.74-.31c.84-.6,5.22-.2,6.88.63a2.8,2.8,0,0,0,1,.28,2.52,2.52,0,0,1,.93.27,3.76,3.76,0,0,0,2.26.36,8.69,8.69,0,0,0,1.24-.92A6.3,6.3,0,0,1,87.69,111.88Z" style="fill:#fff"/></g></g></svg>