<svg xmlns="http://www.w3.org/2000/svg" viewBox="0 0 148.09 148.33"><g id="Layer_2" data-name="Layer 2"><g id="svg2"><path id="rect8528-63-2-4-3" d="M.83,0H147.27a.83.83,0,0,1,.82.83V147.51a.82.82,0,0,1-.82.82H.83a.82.82,0,0,1-.83-.82V.83A.83.83,0,0,1,.83,0Z" style="fill:#cf8d2a;fill-rule:evenodd"/><g id="text6065-3-2-9-6-6-5-0-0-8-8-8"><path id="path2386" d="M47.66,25.23V12.73h3.13a2.76,2.76,0,0,1,2.07.86,2.83,2.83,0,0,1,.86,2.11v1.15a2.93,2.93,0,0,1-1.47,2.65l1.9,5.73h-1.9l-1.68-5.35H49.45v5.35Zm4-7.33a1.15,1.15,0,0,0,.23-.47,2.1,2.1,0,0,0,.07-.58V15.7a1.37,1.37,0,0,0-.32-.94,1.1,1.1,0,0,0-.89-.37H49.45v3.9H50.7a1.24,1.24,0,0,0,.93-.39Z" style="fill:#fff"/><path id="path2388" d="M60,23.44v1.79H54.63V12.73H60v1.64H56.41v3.7h3.13v1.69H56.41v3.68Z" style="fill:#fff"/><path id="path2390" d="M62,22.12v.31a1.4,1.4,0,0,0,0,.23,1.72,1.72,0,0,0,.28.54,1,1,0,0,0,.93.37,1.58,1.58,0,0,0,.69-.15,1.1,1.1,0,0,0,.47-.43,1,1,0,0,0,.13-.39,2.11,2.11,0,0,0,0-.33V21.05a1.13,1.13,0,0,0-.15-.63,2,2,0,0,0-.67-.54,12,12,0,0,0-1.27-.53A3.5,3.5,0,0,1,61,18.29a3,3,0,0,1-.62-2v-.56a3.11,3.11,0,0,1,.86-2.2,3,3,0,0,1,4.29,0,3.07,3.07,0,0,1,.88,2.22v.56H64.58v-.56a1.66,1.66,0,0,0,0-.24,1.36,1.36,0,0,0,0-.21.73.73,0,0,0-.09-.22c0-.09-.12-.19-.21-.32a1,1,0,0,0-.88-.37,1.14,1.14,0,0,0-.89.39,1.42,1.42,0,0,0-.34,1v.73a1.43,1.43,0,0,0,.11.6,1.81,1.81,0,0,0,.6.46l.45.21.76.28a3.81,3.81,0,0,1,1.61,1.06,2.86,2.86,0,0,1,.71,2v1a3.9,3.9,0,0,1-.13,1.1,4.27,4.27,0,0,1-.77,1.3,2.61,2.61,0,0,1-2.18.83,2.65,2.65,0,0,1-2.35-1.05,3.8,3.8,0,0,1-.73-2.18v-.45H62Z" style="fill:#fff"/><path id="path2392" d="M67.18,25.23V12.73h3a2.42,2.42,0,0,1,1.06.24,3.08,3.08,0,0,1,.9.6,2.6,2.6,0,0,1,.61.86,2.24,2.24,0,0,1,.27,1v2a2.69,2.69,0,0,1-.25,1.16,3,3,0,0,1-.61.92,2.88,2.88,0,0,1-.94.61,2.77,2.77,0,0,1-1.12.23H69v4.92Zm3.79-7a.76.76,0,0,0,.21-.35,2,2,0,0,0,0-.47V15.58a1.19,1.19,0,0,0-.32-.86,1.09,1.09,0,0,0-.85-.35H69v4.24h.94a2.38,2.38,0,0,0,.59-.06,1.11,1.11,0,0,0,.47-.3Z" style="fill:#fff"/><path id="path2394" d="M74.41,13.9A3,3,0,0,1,75.49,13a2.89,2.89,0,0,1,1.38-.35,3,3,0,0,1,1.29.28,2.91,2.91,0,0,1,1,.76,2.75,2.75,0,0,1,.56,1,3.8,3.8,0,0,1,.15,1.1v6.37a3.6,3.6,0,0,1-.12,1A2.94,2.94,0,0,1,78.35,25a2.77,2.77,0,0,1-1.42.38,3,3,0,0,1-.86-.12,4.06,4.06,0,0,1-.77-.33,3.69,3.69,0,0,1-.63-.47,2,2,0,0,1-.41-.54,3.73,3.73,0,0,1-.34-.93,6.56,6.56,0,0,1,0-.82V15.77a3.75,3.75,0,0,1,.11-1,3.11,3.11,0,0,1,.43-.88Zm3.47,1a1.11,1.11,0,0,0-1-.52,1.24,1.24,0,0,0-.64.19,1.07,1.07,0,0,0-.42.39,1.33,1.33,0,0,0-.15.45,1.87,1.87,0,0,0,0,.37v6.57a.82.82,0,0,0,0,.21,1.61,1.61,0,0,0,.3.61,1.05,1.05,0,0,0,.93.39,1.21,1.21,0,0,0,.6-.15A1.07,1.07,0,0,0,77.9,23a1.38,1.38,0,0,0,.17-.41,3.14,3.14,0,0,0,0-.48V15.77a3,3,0,0,0,0-.52.9.9,0,0,0-.19-.36Z" style="fill:#fff"/><path id="path2396" d="M85.75,25.23,83,17.64v7.59H81.18V12.73h1.7l2.76,7.58V12.73h1.79v12.5Z" style="fill:#fff"/><path id="path2398" d="M89.77,22.12v.31a1.55,1.55,0,0,0,0,.23,2,2,0,0,0,.28.54,1.08,1.08,0,0,0,.94.37,1.58,1.58,0,0,0,.69-.15,1.11,1.11,0,0,0,.6-.82,2,2,0,0,0,0-.33V21.05a1.13,1.13,0,0,0-.15-.63,1.92,1.92,0,0,0-.67-.54,11.16,11.16,0,0,0-1.27-.53,3.5,3.5,0,0,1-1.53-1.06,3,3,0,0,1-.61-2v-.56a3.1,3.1,0,0,1,.85-2.2,3,3,0,0,1,4.3,0,3.1,3.1,0,0,1,.87,2.22v.56H92.32v-.56a.9.9,0,0,0,0-.24,1.41,1.41,0,0,0,0-.21,1.29,1.29,0,0,0-.1-.22c0-.09-.12-.19-.2-.32a1,1,0,0,0-.88-.37,1.17,1.17,0,0,0-.9.39,1.46,1.46,0,0,0-.33,1v.73a1.29,1.29,0,0,0,.11.6,1.81,1.81,0,0,0,.6.46l.44.21c.22.07.47.17.77.28a3.87,3.87,0,0,1,1.61,1.06,2.85,2.85,0,0,1,.7,2v1a3.9,3.9,0,0,1-.13,1.1,4.18,4.18,0,0,1-.76,1.3,2.63,2.63,0,0,1-2.19.83,2.66,2.66,0,0,1-2.35-1.05A3.87,3.87,0,0,1,88,22.12v-.45h1.82Z" style="fill:#fff"/><path id="path2400" d="M95.1,25.23V12.73h1.77v12.5Z" style="fill:#fff"/><path id="path2402" d="M101.08,12.73a2.44,2.44,0,0,1,1.08.24,3.79,3.79,0,0,1,1.14.84,2.51,2.51,0,0,1,.62,1.87v.95a2.05,2.05,0,0,1-1.14,2,2.27,2.27,0,0,1,1.14,2.1v1.45a3,3,0,0,1-.86,2.19,2.9,2.9,0,0,1-2.17.85H98.13V12.73Zm1.07,3.71v-.76a1.27,1.27,0,0,0-.34-.92,1.19,1.19,0,0,0-.9-.35h-1v3.45H101a1.06,1.06,0,0,0,.9-.37,1.81,1.81,0,0,0,.28-1Zm0,5.75V20.74a1.3,1.3,0,0,0-.34-.94,1.16,1.16,0,0,0-.9-.35h-1v4h1a1.17,1.17,0,0,0,.88-.35A1.36,1.36,0,0,0,102.15,22.19Z" style="fill:#fff"/><path id="path2404" d="M110.18,25.23h-5.34V12.73h1.8V23.44h3.54Z" style="fill:#fff"/><path id="path2406" d="M116,23.44v1.79h-5.36V12.73H116v1.64h-3.59v3.7h3.14v1.69h-3.14v3.68Z" style="fill:#fff"/><path id="path2408" d="M53.35,39.33a6,6,0,0,1-.08,1,2.29,2.29,0,0,1-.37.94,2.44,2.44,0,0,1-.43.5,3,3,0,0,1-.56.41,3.44,3.44,0,0,1-.65.28,2.16,2.16,0,0,1-.69.11A3.38,3.38,0,0,1,49,42.24a2.42,2.42,0,0,1-1-.9,3.21,3.21,0,0,1-.41-1,6.23,6.23,0,0,1-.08-1V32.89a3.87,3.87,0,0,1,.1-.94A2.9,2.9,0,0,1,48.1,31a2.68,2.68,0,0,1,1-.82,2.51,2.51,0,0,1,1.28-.36,2.94,2.94,0,0,1,3,3v.67H51.58v-.67a1.32,1.32,0,0,0-.3-.88,1,1,0,0,0-.84-.36,1,1,0,0,0-.82.36,1.36,1.36,0,0,0-.28.88v6.92a1.57,1.57,0,0,0,.26.64,1,1,0,0,0,.86.37.9.9,0,0,0,.84-.34,2.57,2.57,0,0,0,.24-.48,2.48,2.48,0,0,0,0-.45v-.63h1.77Z" style="fill:#fff"/><path id="path2410" d="M55.3,31.15a3,3,0,0,1,1.09-.93,2.84,2.84,0,0,1,1.38-.36,3.11,3.11,0,0,1,1.29.28,2.81,2.81,0,0,1,1,.77,2.61,2.61,0,0,1,.56,1,3.8,3.8,0,0,1,.15,1.1v6.36a4.1,4.1,0,0,1-.11,1,2.61,2.61,0,0,1-.45,1,2.93,2.93,0,0,1-2.41,1.27,3,3,0,0,1-.85-.11,4.46,4.46,0,0,1-.77-.33,3.45,3.45,0,0,1-.63-.47,2.48,2.48,0,0,1-.42-.54,4,4,0,0,1-.33-.94,4.91,4.91,0,0,1-.06-.82V33a4.1,4.1,0,0,1,.11-1,3.11,3.11,0,0,1,.43-.88Zm3.48,1a1.11,1.11,0,0,0-1-.52,1.27,1.27,0,0,0-.64.18,1.2,1.2,0,0,0-.43.4,1.91,1.91,0,0,0-.15.44,3.29,3.29,0,0,0,0,.38v6.57a1.5,1.5,0,0,0,0,.2,2,2,0,0,0,.3.62,1.08,1.08,0,0,0,.94.39,1.15,1.15,0,0,0,.59-.15.94.94,0,0,0,.39-.37,1.23,1.23,0,0,0,.17-.41,2.25,2.25,0,0,0,0-.49V33a2.2,2.2,0,0,0,0-.53.73.73,0,0,0-.18-.35Z" style="fill:#fff"/><path id="path2412" d="M66.56,42.48l-2.78-7.6v7.6H62V30h1.7l2.76,7.58V30h1.79V42.48Z" style="fill:#fff"/><path id="path2414" d="M70.49,39.36v.32a1.52,1.52,0,0,0,0,.23,1.72,1.72,0,0,0,.28.54,1,1,0,0,0,.93.37,1.58,1.58,0,0,0,.69-.15,1.1,1.1,0,0,0,.47-.43,1.12,1.12,0,0,0,.13-.39,1.48,1.48,0,0,0,0-.34V38.3a1.11,1.11,0,0,0-.15-.63,1.81,1.81,0,0,0-.67-.55C72,37,71.57,36.83,71,36.6a3.59,3.59,0,0,1-1.53-1.06,3,3,0,0,1-.62-2V33a3.11,3.11,0,0,1,.86-2.2,2.78,2.78,0,0,1,2.13-.94,2.83,2.83,0,0,1,2.16.92A3.07,3.07,0,0,1,74.84,33v.56H73.05V33a1.66,1.66,0,0,0,0-.24,1.25,1.25,0,0,0,0-.21.64.64,0,0,0-.09-.22,2.85,2.85,0,0,0-.21-.32,1,1,0,0,0-.88-.37,1.15,1.15,0,0,0-.89.39,1.4,1.4,0,0,0-.34,1v.73a1.38,1.38,0,0,0,.11.59,1.69,1.69,0,0,0,.6.47l.45.21c.21.07.47.16.77.28a3.75,3.75,0,0,1,1.6,1.06,2.86,2.86,0,0,1,.71,2v1a3.93,3.93,0,0,1-.13,1.11,4.39,4.39,0,0,1-.77,1.3,2.61,2.61,0,0,1-2.18.82,2.67,2.67,0,0,1-2.35-1,3.8,3.8,0,0,1-.73-2.19v-.44h1.81Z" style="fill:#fff"/><path id="path2416" d="M81.06,41.17a3.07,3.07,0,0,1-1.06,1,2.66,2.66,0,0,1-1.42.39,2.63,2.63,0,0,1-.78-.11,4,4,0,0,1-.71-.28,3.33,3.33,0,0,1-.6-.41,1.94,1.94,0,0,1-.39-.5,3.75,3.75,0,0,1-.37-.92,4.44,4.44,0,0,1-.08-.84V30h1.79v9.8l0,.19a1.57,1.57,0,0,0,.28.52,1,1,0,0,0,.84.34.89.89,0,0,0,.8-.39,1.55,1.55,0,0,0,.28-.9V30h1.8v9.56a4,4,0,0,1-.1.86,2.52,2.52,0,0,1-.32.78Z" style="fill:#fff"/><path id="path2418" d="M88.35,42.48V34.87L86.56,40.2h-.9l-1.77-5.33v7.61H82.1V30h1.68l2.37,6.67L88.48,30h1.65V42.48Z" style="fill:#fff"/><path id="path2420" d="M91.37,42.48V30h3a2.46,2.46,0,0,1,1.06.25,3.42,3.42,0,0,1,.9.59,2.87,2.87,0,0,1,.61.86,2.27,2.27,0,0,1,.26,1v2a2.83,2.83,0,0,1-.24,1.16,2.73,2.73,0,0,1-.62.91,2.86,2.86,0,0,1-.93.62,2.8,2.8,0,0,1-1.12.22h-1.1v4.93Zm3.79-7a.66.66,0,0,0,.2-.35,1.58,1.58,0,0,0,.06-.47V32.83A1.22,1.22,0,0,0,95.1,32a1.11,1.11,0,0,0-.86-.35H93.16v4.23h.93a2.48,2.48,0,0,0,.6-.05,1.17,1.17,0,0,0,.47-.3Z" style="fill:#fff"/><path id="path2422" d="M99.62,42.48V31.64H97.51V30h6v1.67H101.4V42.48Z" style="fill:#fff"/><path id="path2424" d="M104.19,42.48V30H106V42.48Z" style="fill:#fff"/><path id="path2426" d="M107.8,31.15a3,3,0,0,1,1.08-.93,2.91,2.91,0,0,1,1.39-.36,3,3,0,0,1,1.28.28,2.85,2.85,0,0,1,1,.77,2.75,2.75,0,0,1,.56,1,3.8,3.8,0,0,1,.15,1.1v6.36a4.1,4.1,0,0,1-.11,1,2.61,2.61,0,0,1-.45,1,2.93,2.93,0,0,1-2.41,1.27,3.07,3.07,0,0,1-.86-.11,4.36,4.36,0,0,1-.76-.33,3.92,3.92,0,0,1-.64-.47,2.75,2.75,0,0,1-.41-.54,3.55,3.55,0,0,1-.33-.94,4.91,4.91,0,0,1-.06-.82V33a4.1,4.1,0,0,1,.11-1,3.11,3.11,0,0,1,.43-.88Zm3.47,1a1.1,1.1,0,0,0-1-.52,1.26,1.26,0,0,0-.63.18,1.2,1.2,0,0,0-.43.4,1.53,1.53,0,0,0-.15.44,3.29,3.29,0,0,0,0,.38v6.57a1.5,1.5,0,0,0,0,.2,1.63,1.63,0,0,0,.3.62,1.07,1.07,0,0,0,.93.39,1.16,1.16,0,0,0,.6-.15.94.94,0,0,0,.39-.37,1.23,1.23,0,0,0,.17-.41,2.25,2.25,0,0,0,0-.49V33a2.2,2.2,0,0,0,0-.53.68.68,0,0,0-.19-.35Z" style="fill:#fff"/><path id="path2428" d="M119.23,42.48l-2.78-7.6v7.6h-1.79V30h1.7l2.76,7.58V30h1.79V42.48Z" style="fill:#fff"/><path id="path2430" d="M47,59.73l2.8-12.51h1.55l2.8,12.51H52.21L51.7,57H49.39l-.53,2.69Zm2.72-4.35h1.68l-.84-4.56Z" style="fill:#fff"/><path id="path2432" d="M59.53,59.73l-2.78-7.6v7.6H55V47.22h1.7l2.77,7.58V47.22h1.79V59.73Z" style="fill:#fff"/><path id="path2434" d="M65.06,47.22a2.86,2.86,0,0,1,2.07.86A2.74,2.74,0,0,1,68,50.13v6.5a3.06,3.06,0,0,1-.84,2.24,2.9,2.9,0,0,1-2.16.86H62.22V47.22Zm1.17,9.41v-6.5a1.11,1.11,0,0,0-.39-.87,1.27,1.27,0,0,0-.92-.36H64v9.17h.88c.91,0,1.36-.48,1.36-1.44Z" style="fill:#fff"/><path id="path2436" d="M71,59.73V47.22h3a2.42,2.42,0,0,1,1.06.24,3.08,3.08,0,0,1,.9.6,2.9,2.9,0,0,1,.62.86,2.23,2.23,0,0,1,.26,1v2a2.87,2.87,0,0,1-.24,1.16,3,3,0,0,1-.62.91,2.89,2.89,0,0,1-2.05.84H72.77v4.93Zm3.79-7a.79.79,0,0,0,.21-.36,2,2,0,0,0,0-.46V50.08a1.2,1.2,0,0,0-.31-.86,1.1,1.1,0,0,0-.86-.36H72.77V53.1h.94a3.12,3.12,0,0,0,.6-.05,1.14,1.14,0,0,0,.46-.3Z" style="fill:#fff"/><path id="path2438" d="M77.87,59.73V47.22H81a2.79,2.79,0,0,1,2.07.86,2.84,2.84,0,0,1,.86,2.11v1.16A3,3,0,0,1,82.46,54l1.9,5.73h-1.9l-1.68-5.36H79.66v5.36Zm4-7.34a1.11,1.11,0,0,0,.23-.46,2.15,2.15,0,0,0,.07-.58V50.19a1.33,1.33,0,0,0-.32-.93,1.11,1.11,0,0,0-.89-.38H79.66v3.9h1.25a1.24,1.24,0,0,0,.93-.39Z" style="fill:#fff"/><path id="path2440" d="M85.26,48.4a3,3,0,0,1,1.08-.94,3,3,0,0,1,1.38-.35,3,3,0,0,1,1.29.28,2.9,2.9,0,0,1,1,.76,2.69,2.69,0,0,1,.56,1,3.9,3.9,0,0,1,.15,1.1v6.37a3.75,3.75,0,0,1-.11,1,2.77,2.77,0,0,1-.45,1,2.93,2.93,0,0,1-2.4,1.27,3.43,3.43,0,0,1-.86-.11,3.83,3.83,0,0,1-.77-.34,3,3,0,0,1-.63-.46,2.25,2.25,0,0,1-.41-.55,3.47,3.47,0,0,1-.34-.93,5,5,0,0,1-.06-.82V50.26a3.73,3.73,0,0,1,.12-1,2.82,2.82,0,0,1,.43-.87Zm3.47,1a1.12,1.12,0,0,0-1-.53,1.28,1.28,0,0,0-.64.19,1.1,1.1,0,0,0-.43.39,2,2,0,0,0-.15.45,2.86,2.86,0,0,0,0,.37v6.57a1.48,1.48,0,0,0,0,.21,2.14,2.14,0,0,0,.3.62,1.08,1.08,0,0,0,.94.39,1.15,1.15,0,0,0,.59-.15,1.11,1.11,0,0,0,.4-.37,1.38,1.38,0,0,0,.16-.42,2.09,2.09,0,0,0,0-.48V50.26a2.15,2.15,0,0,0,0-.52.69.69,0,0,0-.18-.35Z" style="fill:#fff"/><path id="path2442" d="M94.78,47.22a2.82,2.82,0,0,1,2.07.86,2.75,2.75,0,0,1,.88,2.05v6.5a3.06,3.06,0,0,1-.84,2.24,2.92,2.92,0,0,1-2.17.86H91.94V47.22ZM96,56.63v-6.5a1.11,1.11,0,0,0-.39-.87,1.26,1.26,0,0,0-.91-.36h-.94v9.17h.88c.91,0,1.36-.48,1.36-1.44Z" style="fill:#fff"/><path id="path2444" d="M104.59,58.42a3.17,3.17,0,0,1-1.06,1,2.66,2.66,0,0,1-1.42.39,3,3,0,0,1-.78-.11,5,5,0,0,1-.71-.28A3.5,3.5,0,0,1,100,59a1.83,1.83,0,0,1-.39-.51,3.7,3.7,0,0,1-.37-.91,4.44,4.44,0,0,1-.08-.84V47.22H101V57l0,.19a1.57,1.57,0,0,0,.28.52,1,1,0,0,0,.84.34.88.88,0,0,0,.8-.4,1.52,1.52,0,0,0,.28-.89V47.22H105v9.56a4,4,0,0,1-.09.86,2.62,2.62,0,0,1-.32.78Z" style="fill:#fff"/><path id="path2446" d="M112.16,56.57a6.07,6.07,0,0,1-.08,1,2.35,2.35,0,0,1-.37.93,2.53,2.53,0,0,1-.43.51,3.52,3.52,0,0,1-.56.41,4.24,4.24,0,0,1-.65.28,2.48,2.48,0,0,1-.69.11,3.38,3.38,0,0,1-1.53-.35,2.42,2.42,0,0,1-1-.9,3.07,3.07,0,0,1-.41-1,6.36,6.36,0,0,1-.08-1V50.13a4.31,4.31,0,0,1,.09-.93,3.07,3.07,0,0,1,.45-.91,2.77,2.77,0,0,1,1-.83,2.61,2.61,0,0,1,1.29-.35,2.94,2.94,0,0,1,3,3v.68h-1.78v-.68a1.34,1.34,0,0,0-.29-.87,1,1,0,0,0-.84-.36,1,1,0,0,0-.83.36,1.39,1.39,0,0,0-.28.87v6.93a1.66,1.66,0,0,0,.27.63,1,1,0,0,0,.85.38.9.9,0,0,0,.84-.34,2.22,2.22,0,0,0,.25-.48,2.81,2.81,0,0,0,0-.45v-.64h1.78Z" style="fill:#fff"/><path id="path2448" d="M114.54,59.73V48.88h-2.11V47.22h6v1.66h-2.15V59.73Z" style="fill:#fff"/><path id="path2450" d="M119.19,59.73V47.22H121V59.73Z" style="fill:#fff"/><path id="path2452" d="M122.63,48.4a3.09,3.09,0,0,1,1.09-.94,3,3,0,0,1,1.38-.35,3,3,0,0,1,1.29.28,2.9,2.9,0,0,1,1,.76,2.69,2.69,0,0,1,.56,1,3.9,3.9,0,0,1,.15,1.1v6.37a3.75,3.75,0,0,1-.11,1,2.77,2.77,0,0,1-.45,1,2.93,2.93,0,0,1-2.41,1.27,3.41,3.41,0,0,1-.85-.11,3.83,3.83,0,0,1-.77-.34,3,3,0,0,1-.63-.46,2.25,2.25,0,0,1-.41-.55,3.47,3.47,0,0,1-.34-.93,5,5,0,0,1-.06-.82V50.26a3.73,3.73,0,0,1,.12-1,2.82,2.82,0,0,1,.43-.87Zm3.48,1a1.12,1.12,0,0,0-1-.53,1.28,1.28,0,0,0-.64.19,1.1,1.1,0,0,0-.43.39,2,2,0,0,0-.15.45,2.86,2.86,0,0,0,0,.37v6.57a1.48,1.48,0,0,0,0,.21,2.14,2.14,0,0,0,.3.62,1.08,1.08,0,0,0,.94.39,1.15,1.15,0,0,0,.59-.15,1.11,1.11,0,0,0,.4-.37,1.38,1.38,0,0,0,.16-.42,2.09,2.09,0,0,0,0-.48V50.26a2.15,2.15,0,0,0,0-.52.69.69,0,0,0-.18-.35Z" style="fill:#fff"/><path id="path2454" d="M133.89,59.73l-2.78-7.6v7.6h-1.79V47.22H131l2.76,7.58V47.22h1.79V59.73Z" style="fill:#fff"/></g><g id="text6075-0-6-9-2-5-9-0-9-4-2-8"><path id="path2457" d="M15.3,42.25V16.79L11,20V15.45l4.29-3.12h4.24V42.25Z" style="fill:#fff"/><path id="path2459" d="M35.85,42.25H23.12V38.32l8-15.45a5,5,0,0,0,.53-2.19V18.45A2.07,2.07,0,0,0,31,16.93a2,2,0,0,0-1.52-.67,2.2,2.2,0,0,0-1.48.58,1.89,1.89,0,0,0-.62,1.43V20.9H23V18.76a9.65,9.65,0,0,1,1.29-4.24q1.34-2.46,5.36-2.46A5.69,5.69,0,0,1,34,14a6.38,6.38,0,0,1,1.83,4.47v2.72a7.62,7.62,0,0,1-1,3.66L28.17,38h7.68Z" style="fill:#fff"/></g><path id="path8194" d="M68.58,101.33l-13.21,4.39a.79.79,0,0,0-.28,1.35l10.4,9.25a.8.8,0,0,0,1.32-.43l2.81-13.64a.8.8,0,0,0-1-.92Zm28.6-29.45c-10.72,0-17.68,7.71-21.11,11.72,0,0,2.62,5.44,4.09,6.25,0,0,6.82-11.07,17-11.07a15.9,15.9,0,0,1,10.53,3.83c3,2.65,5.18,6.78,5.18,13.7a17.72,17.72,0,0,1-3.74,11.11,12.31,12.31,0,0,1-10,4.67,18.57,18.57,0,0,1-12.29-4.3c-3.66-2.94-7.12-7.55-10.46-13.94a58.27,58.27,0,0,0-8.79-13.2C63.26,76,57.1,72,49.15,72a21.82,21.82,0,0,0-15.09,5.63c-4.23,4-6.91,10.17-7,18.3-.06,13.63,10.29,22.83,22.11,22.83a22.77,22.77,0,0,0,14.24-5.25l-4.63-5.12a15.72,15.72,0,0,1-9.61,3.47C40.75,111.88,34,106.3,34,96c0-6.68,2-10.73,4.77-13.3a15,15,0,0,1,10.37-3.76c5.67,0,9.89,2.71,13.39,6.45a52.64,52.64,0,0,1,7.72,11.68c3.6,6.9,7.52,12.33,12.26,16.12A26.07,26.07,0,0,0,99.12,119a19.68,19.68,0,0,0,15.36-7.19,24.41,24.41,0,0,0,5.31-15.49c0-8.48-3-14.85-7.47-18.84A22.68,22.68,0,0,0,97.18,71.88Z" style="fill:#fff;fill-rule:evenodd"/></g></g></svg>