<svg xmlns="http://www.w3.org/2000/svg" viewBox="0 0 148.09 148.33"><g id="Layer_2" data-name="Layer 2"><g id="svg2"><path id="rect8528-63-2-4-3-6-0-4-3-6" d="M.83,0H147.27a.83.83,0,0,1,.82.83V147.51a.82.82,0,0,1-.82.82H.83a.82.82,0,0,1-.83-.82V.83A.83.83,0,0,1,.83,0Z" style="fill:#fdb713;fill-rule:evenodd"/><g id="text6065-3-2-9-6-6-5"><path id="path2087" d="M42,25.58l2.8-12.51h1.55l2.8,12.51H47.2l-.5-2.69H44.38l-.52,2.69Zm2.72-4.35h1.68l-.84-4.56Z" style="fill:#fff"/><path id="path2089" d="M49.92,25.58V13.07h5.34v1.68H51.7V18.5h3.11v1.68H51.7v5.4Z" style="fill:#fff"/><path id="path2091" d="M56.12,25.58V13.07h5.34v1.68H57.9V18.5H61v1.68H57.9v5.4Z" style="fill:#fff"/><path id="path2093" d="M62.27,14.25a3.09,3.09,0,0,1,1.09-.94A3,3,0,0,1,64.74,13a3,3,0,0,1,1.29.28,2.79,2.79,0,0,1,1,.76,2.69,2.69,0,0,1,.56,1,3.85,3.85,0,0,1,.15,1.1v6.37a3.75,3.75,0,0,1-.11,1,2.77,2.77,0,0,1-.45,1,2.62,2.62,0,0,1-1,.89,2.72,2.72,0,0,1-1.42.38,3.41,3.41,0,0,1-.85-.11,3.83,3.83,0,0,1-.77-.34,3,3,0,0,1-.63-.47,1.84,1.84,0,0,1-.41-.54,3.47,3.47,0,0,1-.34-.93,5,5,0,0,1-.06-.82V16.11a3.73,3.73,0,0,1,.12-1A2.91,2.91,0,0,1,62.27,14.25Zm3.48,1a1.13,1.13,0,0,0-1-.52,1.19,1.19,0,0,0-.64.19,1.1,1.1,0,0,0-.43.39,2,2,0,0,0-.15.45,2.86,2.86,0,0,0,0,.37v6.57a1.62,1.62,0,0,0,0,.21,2,2,0,0,0,.3.61,1.06,1.06,0,0,0,.94.4,1.15,1.15,0,0,0,.59-.15,1.13,1.13,0,0,0,.4-.38,1.33,1.33,0,0,0,.16-.41,2.09,2.09,0,0,0,0-.48V16.11a2.1,2.1,0,0,0,0-.52.75.75,0,0,0-.18-.36Z" style="fill:#fff"/><path id="path2095" d="M69.31,25.58V13.07h3.13a2.8,2.8,0,0,1,2.08.86A2.86,2.86,0,0,1,75.37,16v1.15a3,3,0,0,1-1.47,2.66l1.9,5.73H73.9l-1.68-5.36H71.1v5.36Zm4-7.34a1,1,0,0,0,.23-.47,2,2,0,0,0,.07-.58V16a1.37,1.37,0,0,0-.31-.94,1.15,1.15,0,0,0-.9-.37H71.1v3.9h1.25a1.22,1.22,0,0,0,.93-.39Z" style="fill:#fff"/><path id="path2097" d="M79.32,13.07a2.82,2.82,0,0,1,2.07.86A2.71,2.71,0,0,1,82.27,16v6.5a3.08,3.08,0,0,1-.84,2.24,2.91,2.91,0,0,1-2.17.86H76.48V13.07Zm1.17,9.41V16a1.15,1.15,0,0,0-.39-.88,1.29,1.29,0,0,0-.91-.35h-.94v9.16h.88C80,23.91,80.49,23.44,80.49,22.48Z" style="fill:#fff"/><path id="path2099" d="M83.11,25.58l2.8-12.51h1.55l2.8,12.51H88.34l-.5-2.69H85.52L85,25.58Zm2.73-4.35h1.68l-.84-4.56Z" style="fill:#fff"/><path id="path2101" d="M94.12,13.07a2.52,2.52,0,0,1,1.09.24,4.29,4.29,0,0,1,1.13.84A2.47,2.47,0,0,1,97,16V17a2.08,2.08,0,0,1-1.14,2A2.24,2.24,0,0,1,97,21.08v1.45a3,3,0,0,1-.86,2.19,2.9,2.9,0,0,1-2.16.86H91.17V13.07Zm1.07,3.71V16a1.23,1.23,0,0,0-.34-.92,1.18,1.18,0,0,0-.89-.35H93V18.2H94a1.06,1.06,0,0,0,.9-.37A1.81,1.81,0,0,0,95.19,16.78Zm0,5.75V21.08a1.26,1.26,0,0,0-.34-.94,1.15,1.15,0,0,0-.89-.35H93v4h1a1.17,1.17,0,0,0,.88-.35,1.31,1.31,0,0,0,.34-.92Z" style="fill:#fff"/><path id="path2103" d="M103.73,25.58H98.39V13.07h1.8V23.78h3.54Z" style="fill:#fff"/><path id="path2105" d="M109.64,23.78v1.8h-5.36V13.07h5.36v1.64h-3.59v3.7h3.14v1.7h-3.14v3.67Z" style="fill:#fff"/><path id="path2107" d="M111.58,25.58l2.8-12.51h1.54l2.8,12.51H116.8l-.5-2.69H114l-.52,2.69Zm2.72-4.35H116l-.84-4.56Z" style="fill:#fff"/><path id="path2109" d="M124.21,25.58,121.43,18v7.6h-1.79V13.07h1.7l2.76,7.58V13.07h1.79V25.58Z" style="fill:#fff"/><path id="path2111" d="M130,13.07a2.82,2.82,0,0,1,2.07.86,2.75,2.75,0,0,1,.88,2.05v6.5a3.08,3.08,0,0,1-.84,2.24,2.92,2.92,0,0,1-2.17.86h-2.78V13.07Zm1.17,9.41V16a1.15,1.15,0,0,0-.39-.88,1.29,1.29,0,0,0-.91-.35h-.94v9.16h.88C130.71,23.91,131.16,23.44,131.16,22.48Z" style="fill:#fff"/><path id="path2113" d="M48.49,39.67a5.86,5.86,0,0,1-.08,1,2.29,2.29,0,0,1-.37.94,2.79,2.79,0,0,1-.43.5,3,3,0,0,1-.56.41,3.44,3.44,0,0,1-.65.28,2.16,2.16,0,0,1-.69.11,3.25,3.25,0,0,1-1.53-.35,2.36,2.36,0,0,1-1-.9,3,3,0,0,1-.41-1,6.36,6.36,0,0,1-.08-1V33.23a4.48,4.48,0,0,1,.09-.94,3.19,3.19,0,0,1,.45-.91,2.75,2.75,0,0,1,.95-.82,2.54,2.54,0,0,1,1.29-.36,2.94,2.94,0,0,1,3,3v.67H46.71v-.67a1.37,1.37,0,0,0-.29-.88,1,1,0,0,0-.84-.35,1,1,0,0,0-.83.35,1.42,1.42,0,0,0-.28.88v6.92a1.76,1.76,0,0,0,.27.64,1,1,0,0,0,.85.37q.64,0,.84-.33a2.47,2.47,0,0,0,.25-.49,2.64,2.64,0,0,0,0-.45v-.63h1.78Z" style="fill:#fff"/><path id="path2115" d="M55,42.82H49.71V30.32H51.5V41H55Z" style="fill:#fff"/><path id="path2117" d="M60.83,41v1.79H55.48V30.32h5.35V32H57.25v3.69h3.13v1.7H57.25V41Z" style="fill:#fff"/><path id="path2119" d="M61.06,42.82l2.8-12.5h1.55l2.8,12.5H66.29l-.5-2.69H63.47L63,42.82Zm2.73-4.35h1.68l-.84-4.55Z" style="fill:#fff"/><path id="path2121" d="M73.7,42.82l-2.78-7.59v7.59h-1.8V30.32h1.7l2.77,7.57V30.32h1.79v12.5Z" style="fill:#fff"/><path id="path2123" d="M83.82,41v1.79H78.46V30.32h5.36V32H80.23v3.69h3.14v1.7H80.23V41Z" style="fill:#fff"/><path id="path2125" d="M89.11,42.82l-2.78-7.59v7.59H84.54V30.32h1.7L89,37.89V30.32h1.79v12.5Z" style="fill:#fff"/><path id="path2127" d="M97.07,41v1.79H91.71V30.32h5.36V32H93.48v3.69h3.14v1.7H93.48V41Z" style="fill:#fff"/><path id="path2129" d="M98,42.82V30.32h3.14a2.78,2.78,0,0,1,2.07.85,2.9,2.9,0,0,1,.86,2.11v1.16a2.92,2.92,0,0,1-1.48,2.65l1.91,5.73h-1.91l-1.68-5.35H99.79v5.35Zm4-7.33a1.19,1.19,0,0,0,.22-.47,2.08,2.08,0,0,0,.08-.58V33.28a1.36,1.36,0,0,0-.32-.93,1.11,1.11,0,0,0-.9-.37H99.79v3.9H101a1.24,1.24,0,0,0,.94-.39Z" style="fill:#fff"/><path id="path2131" d="M110.74,41.52a3.13,3.13,0,0,1-1.1,1,3,3,0,0,1-1.48.37,3.11,3.11,0,0,1-1.38-.33,3,3,0,0,1-1-.82,3.13,3.13,0,0,1-.49-1,5.65,5.65,0,0,1-.11-1.14V33.38a5.07,5.07,0,0,1,.09-.94,5.63,5.63,0,0,1,.69-1.32,2.51,2.51,0,0,1,2.28-.92,2.86,2.86,0,0,1,1.4.36,2.75,2.75,0,0,1,1,.88,2.63,2.63,0,0,1,.45,1,4.23,4.23,0,0,1,.11,1v.52H109.4v-.52a1.84,1.84,0,0,0,0-.26,1.4,1.4,0,0,0,0-.23,1.51,1.51,0,0,0-.28-.54,1,1,0,0,0-.88-.37,1.06,1.06,0,0,0-1,.39A2,2,0,0,0,107,33a1.85,1.85,0,0,0,0,.43V40a1.27,1.27,0,0,0,0,.22,2.09,2.09,0,0,0,.28.58,1,1,0,0,0,1,.39c.49,0,.8-.13.94-.39a3.11,3.11,0,0,0,.16-.34,1,1,0,0,0,.08-.26.85.85,0,0,0,0-.22V37.45H108V35.88h3.21v3.75c0,.26,0,.49,0,.67a2.93,2.93,0,0,1-.07.47,2.26,2.26,0,0,1-.15.39c-.05.11-.12.23-.19.36Z" style="fill:#fff"/><path id="path2133" d="M113.87,42.82V37.45l-2.43-7.13h1.87l1.45,4.89,1.48-4.89h1.88l-2.48,7.13v5.37Z" style="fill:#fff"/></g><g id="text6075-0-6-9-2-5-9"><path id="path2136" d="M19.06,19.83h-3.8v-7.5H28v3.88l-7,26H16.51L23.79,16.3H19.06Z" style="fill:#fff"/></g><path id="rect7141-6-0-9-8-6-8-6-9-7" d="M44.28,73.66l8,4.64a1.91,1.91,0,1,1-1.91,3.31l-8-4.64a1.91,1.91,0,0,1,1.91-3.31Zm14-12.46,4.64,8a1.91,1.91,0,1,1-3.31,1.91l-4.64-8a1.91,1.91,0,0,1,3.31-1.91Zm18.32-3.81v9.28a1.91,1.91,0,0,1-3.82,0V57.39a1.91,1.91,0,1,1,3.82,0Zm17.78,5.86-4.64,8a1.91,1.91,0,0,1-3.31-1.91l4.64-8a1.91,1.91,0,1,1,3.31,1.91Zm12.46,14-8,4.64a1.91,1.91,0,0,1-1.91-3.31l8-4.64a1.91,1.91,0,1,1,1.91,3.31Zm3.81,18.32h-9.28a1.91,1.91,0,1,1,0-3.82h9.28a1.91,1.91,0,0,1,0,3.82Zm-5.87,17.78-8-4.64a1.91,1.91,0,0,1,1.91-3.31l8,4.64a1.91,1.91,0,0,1-1.91,3.31Zm-14,12.46-4.64-8a1.91,1.91,0,0,1,3.31-1.91l4.64,8a1.91,1.91,0,1,1-3.31,1.91Zm-18.33,3.81v-9.28a1.91,1.91,0,0,1,3.82,0v9.28a1.91,1.91,0,1,1-3.82,0Zm-17.77-5.87,4.64-8a1.91,1.91,0,0,1,3.31,1.91l-4.64,8a1.91,1.91,0,1,1-3.31-1.91Zm-12.46-14,8-4.64a1.91,1.91,0,0,1,1.91,3.31l-8,4.64a1.91,1.91,0,1,1-1.91-3.31ZM38.42,91.43H47.7a1.91,1.91,0,1,1,0,3.82H38.42a1.91,1.91,0,0,1,0-3.82Zm36.1-19.85a21.91,21.91,0,1,0,21.9,21.91,21.91,21.91,0,0,0-21.9-21.91ZM74.43,79a1.3,1.3,0,0,1,1.3,1.3V87.7a1.3,1.3,0,0,1-2.59,0V80.32A1.3,1.3,0,0,1,74.43,79Zm-3.37,3.79v3.82A7.68,7.68,0,1,0,82.2,93.49h0A7.69,7.69,0,0,0,78,86.66V82.83a11.22,11.22,0,0,1-3.49,21.88h0a11.22,11.22,0,0,1-3.46-21.9Z" style="fill:#fff;fill-rule:evenodd"/></g></g></svg>