<svg xmlns="http://www.w3.org/2000/svg" viewBox="0 0 148.09 148.33"><g id="Layer_2" data-name="Layer 2"><g id="svg2"><path id="rect8528-6" d="M.83,0H147.27a.83.83,0,0,1,.82.83V147.51a.82.82,0,0,1-.82.82H.83a.82.82,0,0,1-.83-.82V.83A.83.83,0,0,1,.83,0Z" style="fill:#279b48;fill-rule:evenodd"/><g id="text6065-3-2"><path id="path1921" d="M49.33,24.45a3.13,3.13,0,0,1-1.1,1,3,3,0,0,1-1.48.37,3.11,3.11,0,0,1-1.38-.33,3.15,3.15,0,0,1-1-.82,3.23,3.23,0,0,1-.49-1,5.65,5.65,0,0,1-.11-1.14V16.31a5,5,0,0,1,.09-.94,5.63,5.63,0,0,1,.69-1.32,2.51,2.51,0,0,1,2.28-.92,2.86,2.86,0,0,1,1.4.36,2.52,2.52,0,0,1,1,.88,2.42,2.42,0,0,1,.45,1,4.17,4.17,0,0,1,.11,1v.52H48v-.52a1.84,1.84,0,0,0,0-.26,1.4,1.4,0,0,0,0-.23,1.51,1.51,0,0,0-.28-.54,1,1,0,0,0-.88-.37,1.06,1.06,0,0,0-1,.39,2,2,0,0,0-.26.58,1.8,1.8,0,0,0,0,.43v6.57a1.38,1.38,0,0,0,0,.22,2.09,2.09,0,0,0,.28.58,1,1,0,0,0,1,.39c.49,0,.8-.13.94-.39a3.11,3.11,0,0,0,.16-.34,1.08,1.08,0,0,0,.08-.26.85.85,0,0,0,0-.22V20.38H46.55V18.81h3.21v3.75c0,.26,0,.49,0,.67a2.93,2.93,0,0,1-.07.47,2.26,2.26,0,0,1-.15.39,3.2,3.2,0,0,1-.19.36Z" style="fill:#fff"/><path id="path1923" d="M51.73,14.42a3,3,0,0,1,1.09-.93,2.9,2.9,0,0,1,1.38-.36,3.11,3.11,0,0,1,1.29.28,2.93,2.93,0,0,1,1,.77,2.61,2.61,0,0,1,.56,1,3.8,3.8,0,0,1,.15,1.1v6.36a3.65,3.65,0,0,1-.11,1,2.61,2.61,0,0,1-.45.95,2.93,2.93,0,0,1-2.41,1.27,3,3,0,0,1-.85-.11,4.46,4.46,0,0,1-.77-.33A3.45,3.45,0,0,1,52,25a2,2,0,0,1-.41-.54,3.64,3.64,0,0,1-.34-.94,4.91,4.91,0,0,1-.06-.82V16.29a3.63,3.63,0,0,1,.12-1,3.08,3.08,0,0,1,.42-.88Zm3.48,1a1.11,1.11,0,0,0-1-.52,1.27,1.27,0,0,0-.64.18,1.2,1.2,0,0,0-.43.4,2.08,2.08,0,0,0-.15.44,3,3,0,0,0,0,.38v6.57a1.41,1.41,0,0,0,0,.2,2,2,0,0,0,.3.62,1.08,1.08,0,0,0,.94.39,1.15,1.15,0,0,0,.59-.15,1,1,0,0,0,.4-.37,1.43,1.43,0,0,0,.16-.41,2.25,2.25,0,0,0,0-.49V16.29a2,2,0,0,0,0-.52.75.75,0,0,0-.18-.36Z" style="fill:#fff"/><path id="path1925" d="M59.29,14.42a2.86,2.86,0,0,1,1.08-.93,2.9,2.9,0,0,1,1.38-.36,3.11,3.11,0,0,1,1.29.28,2.93,2.93,0,0,1,1,.77,2.49,2.49,0,0,1,.56,1,3.8,3.8,0,0,1,.15,1.1v6.36a3.65,3.65,0,0,1-.11,1,2.61,2.61,0,0,1-.45.95,2.93,2.93,0,0,1-2.4,1.27,3,3,0,0,1-.86-.11,4.46,4.46,0,0,1-.77-.33,3.83,3.83,0,0,1-.63-.47,2.21,2.21,0,0,1-.41-.54,3.64,3.64,0,0,1-.34-.94,4.91,4.91,0,0,1-.06-.82V16.29a3.63,3.63,0,0,1,.12-1,2.87,2.87,0,0,1,.43-.88Zm3.47,1a1.11,1.11,0,0,0-1-.52,1.3,1.3,0,0,0-.64.18,1.2,1.2,0,0,0-.43.4,2.08,2.08,0,0,0-.15.44,3,3,0,0,0,0,.38v6.57a.71.71,0,0,0,0,.2,1.73,1.73,0,0,0,.29.62,1.08,1.08,0,0,0,.94.39,1.15,1.15,0,0,0,.59-.15,1,1,0,0,0,.4-.37,1.43,1.43,0,0,0,.16-.41,2.25,2.25,0,0,0,0-.49V16.29a2,2,0,0,0,0-.52.75.75,0,0,0-.18-.36Z" style="fill:#fff"/><path id="path1927" d="M69.26,13.25a2.85,2.85,0,0,1,2.08.85,2.76,2.76,0,0,1,.87,2.06v6.49a3.06,3.06,0,0,1-.84,2.24,2.86,2.86,0,0,1-2.16.86H66.43V13.25Zm1.18,9.4V16.16a1.15,1.15,0,0,0-.39-.88,1.28,1.28,0,0,0-.92-.35H68.2v9.16h.88C70,24.09,70.44,23.61,70.44,22.65Z" style="fill:#fff"/><path id="path1929" d="M75.63,25.75V13.25h1.78v5.33h2.27V13.25h1.78v12.5H79.68V20.17H77.41v5.58Z" style="fill:#fff"/><path id="path1931" d="M88.47,24v1.79H83.11V13.25h5.36v1.64H84.89v3.69H88v1.7H84.89V24Z" style="fill:#fff"/><path id="path1933" d="M88.74,25.75l2.8-12.5h1.55l2.8,12.5H94l-.51-2.69H91.15l-.53,2.69Zm2.72-4.35h1.68l-.84-4.55Z" style="fill:#fff"/><path id="path1935" d="M102.16,25.75H96.82V13.25h1.79V24h3.55Z" style="fill:#fff"/><path id="path1937" d="M103,25.75V14.91h-2.11V13.25h6v1.66h-2.15V25.75Z" style="fill:#fff"/><path id="path1939" d="M107.85,25.75V13.25h1.77v5.33h2.28V13.25h1.77v12.5H111.9V20.17h-2.28v5.58Z" style="fill:#fff"/><path id="path1941" d="M42.93,43l2.8-12.51h1.55L50.08,43H48.15l-.5-2.69H45.34L44.81,43Zm2.72-4.35h1.68l-.84-4.56Z" style="fill:#fff"/><path id="path1943" d="M55.56,43l-2.78-7.6V43H51V30.49h1.7l2.76,7.58V30.49h1.79V43Z" style="fill:#fff"/><path id="path1945" d="M62,30.49a2.82,2.82,0,0,1,2.07.86,2.72,2.72,0,0,1,.88,2v6.5a3.06,3.06,0,0,1-.84,2.24A2.91,2.91,0,0,1,62,43H59.19V30.49Zm1.18,9.41V33.4a1.1,1.1,0,0,0-.4-.87,1.26,1.26,0,0,0-.91-.36H61v9.17h.87C62.75,41.34,63.21,40.86,63.21,39.9Z" style="fill:#fff"/><path id="path1947" d="M74.21,43l-1.48-7.62L71.29,43H69.63L67.82,30.49h1.91l.89,7.56,1.44-7.56h1.32l1.48,7.56.89-7.56h1.89L75.89,43Z" style="fill:#fff"/><path id="path1949" d="M83.92,41.21V43H78.56V30.49h5.36v1.64H80.34v3.7h3.13v1.7H80.34v3.68Z" style="fill:#fff"/><path id="path1951" d="M89.93,43H84.59V30.49h1.8V41.21h3.54Z" style="fill:#fff"/><path id="path1953" d="M95.79,43H90.45V30.49h1.8V41.21h3.54Z" style="fill:#fff"/><path id="path1955" d="M101.65,30.49a2.51,2.51,0,0,1,1.08.24,4.49,4.49,0,0,1,1.14.84,2.52,2.52,0,0,1,.62,1.87v1a2.08,2.08,0,0,1-1.14,2,2.25,2.25,0,0,1,1.14,2.09V40a3,3,0,0,1-.86,2.18,2.92,2.92,0,0,1-2.17.86H98.7V30.49Zm1.06,3.72v-.77a1.24,1.24,0,0,0-.33-.91,1.19,1.19,0,0,0-.9-.36h-1v3.46h1.07a1,1,0,0,0,.89-.38A1.73,1.73,0,0,0,102.71,34.21Zm0,5.75V38.5a1.26,1.26,0,0,0-.33-.93,1.15,1.15,0,0,0-.9-.36h-1v4h1a1.16,1.16,0,0,0,.88-.36,1.32,1.32,0,0,0,.33-.91Z" style="fill:#fff"/><path id="path1957" d="M111.18,41.21V43h-5.36V30.49h5.36v1.64h-3.59v3.7h3.14v1.7h-3.14v3.68Z" style="fill:#fff"/><path id="path1959" d="M112,43V30.49h1.78V43Z" style="fill:#fff"/><path id="path1961" d="M119.84,43l-2.78-7.6V43h-1.79V30.49H117l2.76,7.58V30.49h1.79V43Z" style="fill:#fff"/><path id="path1963" d="M128.07,41.69a3,3,0,0,1-2.57,1.42,2.93,2.93,0,0,1-1.38-.34,2.86,2.86,0,0,1-1-.82,3.09,3.09,0,0,1-.49-1,5.65,5.65,0,0,1-.11-1.14V33.55a4.2,4.2,0,0,1,.1-.93,5.11,5.11,0,0,1,.69-1.33,2.5,2.5,0,0,1,2.27-.91,2.83,2.83,0,0,1,1.4.36,2.5,2.5,0,0,1,1,.87,2.55,2.55,0,0,1,.45,1,3.8,3.8,0,0,1,.11,1v.53h-1.77v-.53a2,2,0,0,0,0-.26,1.38,1.38,0,0,0,0-.22,1.36,1.36,0,0,0-.28-.54,1,1,0,0,0-.87-.38,1.06,1.06,0,0,0-1,.4,3,3,0,0,0-.26.57,2.81,2.81,0,0,0,0,.43v6.57a1.55,1.55,0,0,0,0,.23,2.45,2.45,0,0,0,.28.58,1.05,1.05,0,0,0,1,.39q.72,0,.93-.39l.17-.34a1.13,1.13,0,0,0,.07-.26.57.57,0,0,0,0-.22V37.62h-1.44V36.06h3.21v3.75c0,.26,0,.48,0,.67a2.21,2.21,0,0,1-.07.47,3.12,3.12,0,0,1-.15.39,2.45,2.45,0,0,1-.19.35Z" style="fill:#fff"/></g><g id="text6075-0-6"><path id="path1966" d="M29.31,35.55v.54a6.54,6.54,0,0,1,0,.71,6.12,6.12,0,0,1-.13,1.07,6.69,6.69,0,0,1-2.37,3.49,6.25,6.25,0,0,1-4,1.34,6,6,0,0,1-3.4-1.07,5.53,5.53,0,0,1-2.05-2.19c-.18-.39-.33-.73-.45-1s-.16-.58-.22-.85a7.18,7.18,0,0,1-.14-.85v-2.9h4.29v2.46a3.94,3.94,0,0,0,.49,1.29,1.68,1.68,0,0,0,1.61.8,1.76,1.76,0,0,0,1.65-.8,3.79,3.79,0,0,0,.49-2V31a2.49,2.49,0,0,0-.35-1.3A1.58,1.58,0,0,0,24,29a1.71,1.71,0,0,0-.85-.22c-.3,0-.57,0-.81,0h-.76V25h.76c1.79,0,2.68-.83,2.68-2.5V18.89A3.7,3.7,0,0,0,25,18a1,1,0,0,0-.13-.41,2.23,2.23,0,0,0-.4-.53,1.77,1.77,0,0,0-.58-.45,1.87,1.87,0,0,0-.85-.18,1.9,1.9,0,0,0-1.65.72,2.68,2.68,0,0,0-.54,1.74v2.19H16.53V18.89a6.58,6.58,0,0,1,1.83-4.73A6.08,6.08,0,0,1,23,12.23,6,6,0,0,1,26,13a5.66,5.66,0,0,1,2.15,1.87,6.36,6.36,0,0,1,.93,2,8.5,8.5,0,0,1,.23,2v3.48a4.87,4.87,0,0,1-2.55,4.43,6.34,6.34,0,0,1,2,2.05,5.36,5.36,0,0,1,.58,2.68Z" style="fill:#fff"/></g><path id="path6921" d="M26.93,97.27H51.41L60,78.41l4.3,28.78L74.57,88.78l6.18,35L100.6,58.23l9.15,18.86" style="fill:none;stroke:#fff;stroke-linecap:round;stroke-linejoin:round;stroke-width:3.4000000953674316px"/><path id="path6945" d="M112.89,108S119.63,101.1,123,97.7a6.5,6.5,0,0,0,1.87-4.56c0-3.38-1.46-7.88-6.48-7.88-2.85,0-5.23,2.75-5.49,3a.69.69,0,0,1-1.17,0c-.25-.3-2.65-3-5.5-3-5,0-6.47,4.5-6.47,7.88a6.46,6.46,0,0,0,1.87,4.56c3.4,3.4,10.14,10.25,10.14,10.25.37.4.66.41,1.09,0Z" style="fill:#fff;fill-rule:evenodd"/></g></g></svg>