<svg xmlns="http://www.w3.org/2000/svg" viewBox="0 0 148.09 148.33"><g id="Layer_2" data-name="Layer 2"><g id="svg2"><path id="rect8528-63-2-4-3-6-0-4-3-6-3-7-4" d="M.83,0H147.27a.83.83,0,0,1,.82.83V147.51a.82.82,0,0,1-.82.82H.83a.82.82,0,0,1-.83-.82V.83A.83.83,0,0,1,.83,0Z" style="fill:#3eb049;fill-rule:evenodd"/><g id="text6065-3-2-9-6-6-5-5-2-9"><path id="path2528" d="M52.9,25.54H47.56V13h1.79V23.75H52.9Z" style="fill:#fff"/><path id="path2530" d="M53.26,25.54V13H55V25.54Z" style="fill:#fff"/><path id="path2532" d="M56.17,25.54V13h5.34v1.68H57.94v3.76h3.12v1.68H57.94v5.39Z" style="fill:#fff"/><path id="path2534" d="M67.48,23.75v1.79H62.12V13h5.36v1.65H63.89v3.69H67v1.7H63.89v3.68Z" style="fill:#fff"/><path id="path2536" d="M48,31.46A3.09,3.09,0,0,1,49,30.52a3,3,0,0,1,2.67-.07,2.9,2.9,0,0,1,1,.76,2.69,2.69,0,0,1,.56,1,3.85,3.85,0,0,1,.15,1.1v6.37a4.22,4.22,0,0,1-.11,1,2.77,2.77,0,0,1-.45,1,2.72,2.72,0,0,1-1,.9,2.81,2.81,0,0,1-1.42.37,3.41,3.41,0,0,1-.85-.11,3.83,3.83,0,0,1-.77-.34,3,3,0,0,1-.63-.47,2.08,2.08,0,0,1-.42-.54,3.76,3.76,0,0,1-.33-.93,5,5,0,0,1-.06-.82V33.32a4.22,4.22,0,0,1,.11-1,3.35,3.35,0,0,1,.43-.87Zm3.48,1a1.12,1.12,0,0,0-1-.53,1.28,1.28,0,0,0-.64.19,1.1,1.1,0,0,0-.43.39,2,2,0,0,0-.15.45,3.15,3.15,0,0,0,0,.37v6.57a1.65,1.65,0,0,0,0,.21,2.14,2.14,0,0,0,.3.62,1.08,1.08,0,0,0,.94.39,1.15,1.15,0,0,0,.59-.15,1.05,1.05,0,0,0,.4-.38,1.24,1.24,0,0,0,.16-.41,2.09,2.09,0,0,0,0-.48V33.32a2.1,2.1,0,0,0,0-.52.69.69,0,0,0-.18-.35Z" style="fill:#fff"/><path id="path2538" d="M59.13,42.79l-2.78-7.6v7.6h-1.8V30.28h1.7L59,37.86V30.28h1.79V42.79Z" style="fill:#fff"/><path id="path2540" d="M71.28,42.79H65.94V30.28h1.79V41h3.55Z" style="fill:#fff"/><path id="path2542" d="M71.38,42.79l2.8-12.51h1.55l2.8,12.51H76.6l-.5-2.69H73.78l-.52,2.69Zm2.72-4.35h1.68l-.84-4.56Z" style="fill:#fff"/><path id="path2544" d="M83.63,42.79l-2.78-7.6v7.6H79.06V30.28h1.7l2.76,7.58V30.28h1.79V42.79Z" style="fill:#fff"/><path id="path2546" d="M89.34,30.28a2.82,2.82,0,0,1,2.07.86,2.71,2.71,0,0,1,.88,2v6.5a3.06,3.06,0,0,1-.84,2.24,2.9,2.9,0,0,1-2.16.86H86.5V30.28Zm1.18,9.41v-6.5a1.11,1.11,0,0,0-.39-.87,1.28,1.28,0,0,0-.92-.36h-.93v9.17h.88c.9,0,1.36-.48,1.36-1.44Z" style="fill:#fff"/></g><g id="text6075-0-6-9-2-5-9-1-4-7"><path id="path2549" d="M14.8,42.94V17.48L10.51,20.7V16.14L14.8,13H19V42.94Z" style="fill:#fff"/><path id="path2551" d="M30.12,23.69a4.5,4.5,0,0,1,2.23.63,4.39,4.39,0,0,1,1.7,1.47,4.68,4.68,0,0,1,.76,1.79A7.78,7.78,0,0,1,35,29.5v6.7a14,14,0,0,1-.09,1.7,7.17,7.17,0,0,1-.49,1.87,5,5,0,0,1-2.19,2.32,6.42,6.42,0,0,1-6.56.41,6.24,6.24,0,0,1-2.15-1.84,6.43,6.43,0,0,1-1-2.18,9.74,9.74,0,0,1-.27-2.28v-.76h4.38v1.65a1.4,1.4,0,0,0,.13.54,3.31,3.31,0,0,0,.36.62,2,2,0,0,0,.62.49,2.28,2.28,0,0,0,.94.18,1.73,1.73,0,0,0,1.61-.67,3,3,0,0,0,.45-1c0-.27,0-.56,0-.85v-6.7a3.42,3.42,0,0,0,0-.45,1.44,1.44,0,0,0-.14-.54,1.4,1.4,0,0,0-.36-.58,1.46,1.46,0,0,0-.62-.49,1.66,1.66,0,0,0-.89-.22A2.06,2.06,0,0,0,26.64,29H22.79V13H35v4H26.64v8a5.12,5.12,0,0,1,3.48-1.34Z" style="fill:#fff"/></g><path id="path8267" d="M48.94,69.25C37.79,70,39,80.87,44.38,84c-4.59,7.21,0,14,5.45,14H67.76c9.87,0,16.8-16.75,1.39-23.66,5.62-19.48-20.37-18.16-20.21-5.07Z" style="fill:#fff"/><path id="path8269" d="M85.65,90.14c5-2.32,11.1,2.83,11.1,2.83s5.23-4.87,11-2.75c1.47.54,1.36-1,.86-1.34-2.91-2.1-6.57-4.12-11.65-.08-6.14-3.93-9.54-2.15-12,0C84.31,89.36,84.53,90.66,85.65,90.14Z" style="fill:#fff"/><path id="path8269-7" d="M78.05,72.11c4-2.27,9.36,1.53,9.36,1.53s4-4.39,8.82-3.06c1.25.34,1-.91.61-1.17-2.55-1.51-5.71-2.91-9.61.78-5.34-2.79-8-1.07-9.86.87-.48.51-.21,1.56.68,1Z" style="fill:#fff"/><path id="path8269-3" d="M92.39,61.26c3.63-.54,6.55,3.91,6.55,3.91s4.26-2.12,7.51.3c.83.63,1-.37.8-.69-1.46-1.88-3.41-3.86-7.42-2.25-3.18-3.67-5.68-3.17-7.64-2.26-.51.24-.61,1.11.2,1Z" style="fill:#fff"/><path id="rect8292" d="M58.61,100.78h3.71a.83.83,0,0,1,.83.83v9.91a.83.83,0,0,1-.83.83H58.61a.83.83,0,0,1-.83-.83v-9.91A.83.83,0,0,1,58.61,100.78Z" style="fill:#fff;fill-rule:evenodd"/><path id="rect8292-7" d="M39,116.81h70.87a.83.83,0,0,1,.83.83v3.52a.83.83,0,0,1-.83.83H39a.83.83,0,0,1-.83-.83v-3.52A.83.83,0,0,1,39,116.81Z" style="fill:#fff;fill-rule:evenodd"/><path id="rect8292-7-1" d="M39,125.31h70.87a.83.83,0,0,1,.83.83v3.53a.83.83,0,0,1-.83.82H39a.83.83,0,0,1-.83-.82v-3.53A.83.83,0,0,1,39,125.31Z" style="fill:#fff;fill-rule:evenodd"/></g></g></svg>