<svg xmlns="http://www.w3.org/2000/svg" viewBox="0 0 148.09 148.33"><g id="Layer_2" data-name="Layer 2"><g id="svg2"><path id="rect8528-63-2-4-3-6-0-4-3-6-3-7-4-9" d="M.83,0H147.27a.83.83,0,0,1,.82.83V147.51a.82.82,0,0,1-.82.82H.83a.82.82,0,0,1-.83-.82V.83A.83.83,0,0,1,.83,0Z" style="fill:#02558b;fill-rule:evenodd"/><g id="text6065-3-2-9-6-6-5-5-2-9-7"><path id="path2554" d="M47,25.54V13h3a2.3,2.3,0,0,1,1.06.25,3.05,3.05,0,0,1,.9.59,2.87,2.87,0,0,1,.61.86,2.28,2.28,0,0,1,.27,1v2a3,3,0,0,1-.86,2.07,2.9,2.9,0,0,1-.94.62,2.8,2.8,0,0,1-1.12.22h-1.1v4.93Zm3.79-7a.65.65,0,0,0,.2-.36,1.51,1.51,0,0,0,.06-.46V15.89a1.2,1.2,0,0,0-.32-.86,1.07,1.07,0,0,0-.86-.35H48.75v4.23h.94a3.09,3.09,0,0,0,.59-.05,1.17,1.17,0,0,0,.47-.3Z" style="fill:#fff"/><path id="path2556" d="M59.39,23.75v1.79H54V13h5.36v1.65H55.81v3.69h3.13v1.7H55.81v3.68Z" style="fill:#fff"/><path id="path2558" d="M59.9,25.54,62.7,13h1.55l2.8,12.51H65.13l-.51-2.69H62.31l-.52,2.69Zm2.73-4.35h1.68l-.84-4.55Z" style="fill:#fff"/><path id="path2560" d="M73.55,22.39a6,6,0,0,1-.08,1,2.29,2.29,0,0,1-.37.94,2.79,2.79,0,0,1-.43.5,3,3,0,0,1-.56.41,3.44,3.44,0,0,1-.65.28,2.48,2.48,0,0,1-.69.11,3.38,3.38,0,0,1-1.53-.35,2.42,2.42,0,0,1-1-.9,3.3,3.3,0,0,1-.41-1,6.23,6.23,0,0,1-.08-1V16a4.48,4.48,0,0,1,.09-.94,3.19,3.19,0,0,1,.45-.91,2.65,2.65,0,0,1,1-.82,2.54,2.54,0,0,1,1.29-.36,2.94,2.94,0,0,1,3,3v.67H71.77V16a1.3,1.3,0,0,0-.29-.88,1,1,0,0,0-.84-.36,1,1,0,0,0-.83.36,1.4,1.4,0,0,0-.28.88v6.92a1.76,1.76,0,0,0,.27.64,1,1,0,0,0,.85.37c.43,0,.71-.11.84-.34a2.22,2.22,0,0,0,.25-.48,2.64,2.64,0,0,0,0-.45V22h1.78Z" style="fill:#fff"/><path id="path2562" d="M80.18,23.75v1.79H74.82V13h5.36v1.65H76.6v3.69h3.13v1.7H76.6v3.68Z" style="fill:#fff"/><path id="path2564" d="M81.05,26.87v-3.1h1.79v1.77Z" style="fill:#fff"/><path id="path2566" d="M91,24.29a3.18,3.18,0,0,1-1.07,1,2.7,2.7,0,0,1-1.38.37,3.09,3.09,0,0,1-1.34-.3,3.61,3.61,0,0,1-1.1-.86l1.38-1.12a1.36,1.36,0,0,0,1,.47c.53,0,.85-.14,1-.41a2.39,2.39,0,0,0,.22-.6c0-.11,0-.24,0-.39V13H91.5v9.24a4.49,4.49,0,0,1-.11,1.24A2.44,2.44,0,0,1,91,24.29Z" style="fill:#fff"/><path id="path2568" d="M98.55,24.23a3.16,3.16,0,0,1-1.06,1,2.68,2.68,0,0,1-1.42.39,3.07,3.07,0,0,1-.79-.11,4.37,4.37,0,0,1-.71-.28,3.24,3.24,0,0,1-.59-.41,1.79,1.79,0,0,1-.4-.5,4.19,4.19,0,0,1-.37-.92,4.46,4.46,0,0,1-.07-.84V13h1.79v9.8L95,23a1.39,1.39,0,0,0,.28.52,1,1,0,0,0,.84.34.9.9,0,0,0,.8-.39,1.57,1.57,0,0,0,.28-.9V13H99v9.56a4,4,0,0,1-.09.86,2.92,2.92,0,0,1-.32.78Z" style="fill:#fff"/><path id="path2570" d="M101.92,22.42v.32a1.27,1.27,0,0,0,0,.22,1.87,1.87,0,0,0,.28.55,1.09,1.09,0,0,0,.93.37,1.58,1.58,0,0,0,.69-.15,1.1,1.1,0,0,0,.47-.43.94.94,0,0,0,.13-.39,1.48,1.48,0,0,0,0-.34V21.36a1.17,1.17,0,0,0-.15-.64,1.92,1.92,0,0,0-.67-.54,12.61,12.61,0,0,0-1.27-.52,3.59,3.59,0,0,1-1.53-1.06,3,3,0,0,1-.62-2v-.56a3.13,3.13,0,0,1,.86-2.21,2.95,2.95,0,0,1,4.29,0,3.07,3.07,0,0,1,.88,2.22v.56h-1.79v-.56a2,2,0,0,0,0-.25,1.23,1.23,0,0,0,0-.2.64.64,0,0,0-.09-.22,2.85,2.85,0,0,0-.21-.32,1,1,0,0,0-.87-.38,1.18,1.18,0,0,0-.9.4,1.45,1.45,0,0,0-.34,1v.73a1.26,1.26,0,0,0,.12.59,1.55,1.55,0,0,0,.59.47l.45.2.77.28a3.86,3.86,0,0,1,1.6,1.07,2.81,2.81,0,0,1,.71,2v1a3.81,3.81,0,0,1-.13,1.1,4.2,4.2,0,0,1-.76,1.31,3.25,3.25,0,0,1-4.54-.22,3.8,3.8,0,0,1-.73-2.19V22h1.81Z" style="fill:#fff"/><path id="path2572" d="M108.57,25.54V14.69h-2.11V13h6v1.66h-2.14V25.54Z" style="fill:#fff"/><path id="path2574" d="M113.47,25.54V13h1.77V25.54Z" style="fill:#fff"/><path id="path2576" d="M122.5,22.39a6,6,0,0,1-.07,1,2.48,2.48,0,0,1-.38.94,2.44,2.44,0,0,1-.43.5,3,3,0,0,1-.56.41,3.18,3.18,0,0,1-.65.28,2.48,2.48,0,0,1-.69.11,3.38,3.38,0,0,1-1.53-.35,2.42,2.42,0,0,1-1-.9,3.3,3.3,0,0,1-.41-1,6.23,6.23,0,0,1-.08-1V16a3.87,3.87,0,0,1,.1-.94,2.74,2.74,0,0,1,.45-.91,2.57,2.57,0,0,1,.95-.82,2.52,2.52,0,0,1,1.29-.36,2.94,2.94,0,0,1,3,3v.67h-1.77V16a1.3,1.3,0,0,0-.3-.88,1.14,1.14,0,0,0-1.66,0,1.35,1.35,0,0,0-.28.88v6.92a1.57,1.57,0,0,0,.26.64,1,1,0,0,0,.86.37.9.9,0,0,0,.84-.34,2.57,2.57,0,0,0,.24-.48,2.48,2.48,0,0,0,0-.45V22h1.77Z" style="fill:#fff"/><path id="path2578" d="M129.22,23.75v1.79h-5.35V13h5.35v1.65h-3.58v3.69h3.13v1.7h-3.13v3.68Z" style="fill:#fff"/><path id="path2580" d="M46.37,42.79l2.8-12.51h1.55l2.8,12.51H51.59l-.5-2.69H48.77l-.52,2.69Zm2.72-4.35h1.68l-.84-4.56Z" style="fill:#fff"/><path id="path2582" d="M59,42.79l-2.78-7.6v7.6H54.43V30.28h1.7l2.76,7.58V30.28h1.79V42.79Z" style="fill:#fff"/><path id="path2584" d="M64.84,30.28a2.82,2.82,0,0,1,2.07.86,2.71,2.71,0,0,1,.88,2v6.5A3.06,3.06,0,0,1,67,41.93a2.91,2.91,0,0,1-2.17.86H62V30.28ZM66,39.69v-6.5a1.09,1.09,0,0,0-.4-.87,1.24,1.24,0,0,0-.91-.36h-.93v9.17h.87c.91,0,1.37-.48,1.37-1.44Z" style="fill:#fff"/><path id="path2586" d="M72.71,39.67V40a.75.75,0,0,0,0,.22,1.38,1.38,0,0,0,.28.54,1,1,0,0,0,.93.38,1.58,1.58,0,0,0,.69-.15,1.23,1.23,0,0,0,.47-.43,1.37,1.37,0,0,0,.13-.39,2.24,2.24,0,0,0,0-.34V38.61a1.14,1.14,0,0,0-.15-.64,1.82,1.82,0,0,0-.67-.54,11.66,11.66,0,0,0-1.27-.52,3.61,3.61,0,0,1-1.53-1.07,3,3,0,0,1-.61-2V33.3a3.08,3.08,0,0,1,.86-2.2A2.8,2.8,0,0,1,74,30.17a2.85,2.85,0,0,1,2.17.91,3.11,3.11,0,0,1,.88,2.22v.56h-1.8V33.3a1.93,1.93,0,0,0,0-.24,1.23,1.23,0,0,0,0-.2,1.07,1.07,0,0,0-.1-.23c0-.08-.11-.19-.2-.31a1,1,0,0,0-.88-.38,1.17,1.17,0,0,0-.9.39,1.48,1.48,0,0,0-.33,1V34a1.43,1.43,0,0,0,.11.6,1.81,1.81,0,0,0,.6.47l.45.2.76.28a3.9,3.9,0,0,1,1.61,1.07,2.85,2.85,0,0,1,.71,2v1a4.25,4.25,0,0,1-.13,1.1,4.28,4.28,0,0,1-.77,1.31A2.62,2.62,0,0,1,74,42.9a2.67,2.67,0,0,1-2.36-1,3.83,3.83,0,0,1-.72-2.18v-.45h1.81Z" style="fill:#fff"/><path id="path2588" d="M79.63,42.79V31.94H77.52V30.28h6v1.66H81.4V42.79Z" style="fill:#fff"/><path id="path2590" d="M84.32,42.79V30.28h3.14a2.79,2.79,0,0,1,2.07.86,2.87,2.87,0,0,1,.86,2.11v1.16a2.93,2.93,0,0,1-1.48,2.65l1.91,5.73H88.91l-1.68-5.36H86.11v5.36Zm4-7.34a1.13,1.13,0,0,0,.22-.47,2,2,0,0,0,.08-.57V33.25a1.33,1.33,0,0,0-.32-.93,1.11,1.11,0,0,0-.9-.38H86.11v3.9h1.25a1.24,1.24,0,0,0,.94-.39Z" style="fill:#fff"/><path id="path2592" d="M91.94,31.46A3.15,3.15,0,0,1,93,30.52a3,3,0,0,1,1.39-.35,2.89,2.89,0,0,1,1.28.28,2.94,2.94,0,0,1,1,.76,2.83,2.83,0,0,1,.56,1,3.85,3.85,0,0,1,.15,1.1v6.37a4.22,4.22,0,0,1-.11,1,2.77,2.77,0,0,1-.45,1,2.72,2.72,0,0,1-1,.9,2.84,2.84,0,0,1-1.42.37,3.49,3.49,0,0,1-.86-.11,3.74,3.74,0,0,1-.76-.34A3.41,3.41,0,0,1,92.2,42a2.27,2.27,0,0,1-.41-.54,3.39,3.39,0,0,1-.33-.93,5,5,0,0,1-.06-.82V33.32a4.22,4.22,0,0,1,.11-1,3.06,3.06,0,0,1,.43-.87Zm3.47,1a1.11,1.11,0,0,0-1-.53,1.28,1.28,0,0,0-.63.19,1.1,1.1,0,0,0-.43.39,1.33,1.33,0,0,0-.15.45,1.87,1.87,0,0,0,0,.37v6.57a1.65,1.65,0,0,0,0,.21,1.7,1.7,0,0,0,.3.62,1.07,1.07,0,0,0,.93.39A1.16,1.16,0,0,0,95,41a1,1,0,0,0,.39-.38,1.09,1.09,0,0,0,.17-.41,2.09,2.09,0,0,0,0-.48V33.32a2.1,2.1,0,0,0,0-.52.64.64,0,0,0-.19-.35Z" style="fill:#fff"/><path id="path2594" d="M103.53,42.79l-2.78-7.6v7.6H99V30.28h1.69l2.77,7.58V30.28h1.79V42.79Z" style="fill:#fff"/><path id="path2596" d="M111.89,41.48a3,3,0,0,1-1.1,1.05,3.08,3.08,0,0,1-1.47.37,3,3,0,0,1-1.39-.34,2.91,2.91,0,0,1-1-.82,3,3,0,0,1-.49-1,5.48,5.48,0,0,1-.11-1.13V33.34a4.88,4.88,0,0,1,.09-.93,5.84,5.84,0,0,1,.69-1.33,2.51,2.51,0,0,1,2.28-.91,2.94,2.94,0,0,1,1.4.35,2.6,2.6,0,0,1,1,.88,2.55,2.55,0,0,1,.45,1,4.23,4.23,0,0,1,.11,1v.52h-1.77v-.52a2,2,0,0,0,0-.26,1.27,1.27,0,0,0,0-.22,1.37,1.37,0,0,0-.28-.54,1,1,0,0,0-.88-.38,1.06,1.06,0,0,0-1,.39,2.67,2.67,0,0,0-.26.58,2.74,2.74,0,0,0,0,.43v6.57a1.52,1.52,0,0,0,0,.23,2.45,2.45,0,0,0,.28.58,1,1,0,0,0,1,.39c.49,0,.8-.13.94-.39s.13-.25.17-.34a2.08,2.08,0,0,0,.07-.26.62.62,0,0,0,0-.23V37.41h-1.44V35.84h3.21V39.6c0,.26,0,.48,0,.67a2,2,0,0,1-.07.46,2.74,2.74,0,0,1-.15.4,2.45,2.45,0,0,1-.19.35Z" style="fill:#fff"/><path id="path2598" d="M47,60V47.53h1.77V60Z" style="fill:#fff"/><path id="path2600" d="M54.8,60,52,52.44V60H50.23V47.53h1.7l2.76,7.58V47.53h1.79V60Z" style="fill:#fff"/><path id="path2602" d="M59,56.92v.31a1.4,1.4,0,0,0,0,.23,2,2,0,0,0,.28.54,1.07,1.07,0,0,0,.93.37,1.66,1.66,0,0,0,.7-.15,1.07,1.07,0,0,0,.46-.43.86.86,0,0,0,.13-.39,1.35,1.35,0,0,0,0-.33V55.85a1.13,1.13,0,0,0-.15-.63,1.92,1.92,0,0,0-.67-.54,12,12,0,0,0-1.27-.53A3.5,3.5,0,0,1,58,53.09a3,3,0,0,1-.62-2v-.56a3.11,3.11,0,0,1,.86-2.2,3,3,0,0,1,4.29,0,3.07,3.07,0,0,1,.88,2.22v.56H61.6v-.56a1.66,1.66,0,0,0,0-.24,1.36,1.36,0,0,0,0-.21.73.73,0,0,0-.09-.22c0-.09-.12-.19-.21-.32a1,1,0,0,0-.87-.37,1.17,1.17,0,0,0-.9.39,1.47,1.47,0,0,0-.34,1v.73a1.28,1.28,0,0,0,.12.6,1.65,1.65,0,0,0,.59.46l.45.21.77.28a3.84,3.84,0,0,1,1.6,1.06,2.83,2.83,0,0,1,.71,2v1a3.9,3.9,0,0,1-.13,1.1,4.18,4.18,0,0,1-.76,1.3A3.22,3.22,0,0,1,58,59.1a3.8,3.8,0,0,1-.73-2.18v-.45H59Z" style="fill:#fff"/><path id="path2604" d="M65.87,60V49.19H63.76V47.53h6v1.66H67.65V60Z" style="fill:#fff"/><path id="path2606" d="M70.68,60V47.53h1.77V60Z" style="fill:#fff"/><path id="path2608" d="M75.47,60V49.19H73.36V47.53h6v1.66H77.25V60Z" style="fill:#fff"/><path id="path2610" d="M85.78,58.73a3.17,3.17,0,0,1-1.07,1,2.55,2.55,0,0,1-1.41.4,2.66,2.66,0,0,1-.79-.12,3.62,3.62,0,0,1-.71-.28,3.24,3.24,0,0,1-.59-.41,1.79,1.79,0,0,1-.4-.5,4,4,0,0,1-.37-.92,4.46,4.46,0,0,1-.07-.84V47.53h1.79v9.8l0,.18a1.8,1.8,0,0,0,.28.53,1,1,0,0,0,.84.33.91.91,0,0,0,.81-.39,1.6,1.6,0,0,0,.28-.9V47.53h1.79v9.55a4,4,0,0,1-.09.86,2.85,2.85,0,0,1-.32.79Z" style="fill:#fff"/><path id="path2612" d="M89.08,60V49.19H87V47.53h6v1.66H90.86V60Z" style="fill:#fff"/><path id="path2614" d="M93.89,60V47.53h1.77V60Z" style="fill:#fff"/><path id="path2616" d="M97.75,48.7a3,3,0,0,1,1.08-.93,2.89,2.89,0,0,1,1.38-.35,3,3,0,0,1,1.29.28,2.91,2.91,0,0,1,1,.76,2.75,2.75,0,0,1,.56,1,3.8,3.8,0,0,1,.15,1.1v6.37a3.6,3.6,0,0,1-.12,1,2.94,2.94,0,0,1-1.43,1.85,2.77,2.77,0,0,1-1.42.38,3,3,0,0,1-.86-.12,3.51,3.51,0,0,1-.77-.33,3.69,3.69,0,0,1-.63-.47,2.27,2.27,0,0,1-.41-.54,3.73,3.73,0,0,1-.34-.93,6.56,6.56,0,0,1-.05-.82V50.57a3.75,3.75,0,0,1,.11-1,3.11,3.11,0,0,1,.43-.88Zm3.47,1a1.11,1.11,0,0,0-1-.52,1.24,1.24,0,0,0-.64.19,1.07,1.07,0,0,0-.42.39,1.33,1.33,0,0,0-.15.45,1.87,1.87,0,0,0,0,.37v6.57a.82.82,0,0,0,0,.21,1.61,1.61,0,0,0,.3.61,1.05,1.05,0,0,0,.93.39,1.21,1.21,0,0,0,.6-.15,1.07,1.07,0,0,0,.39-.37,1.38,1.38,0,0,0,.17-.41,3.14,3.14,0,0,0,0-.48V50.57a3,3,0,0,0,0-.52.9.9,0,0,0-.19-.36Z" style="fill:#fff"/><path id="path2618" d="M109.16,60l-2.79-7.59V60h-1.79V47.53h1.7L109,55.11V47.53h1.8V60Z" style="fill:#fff"/><path id="path2620" d="M113.48,56.92v.31a1.4,1.4,0,0,0,0,.23,2,2,0,0,0,.28.54,1.08,1.08,0,0,0,.94.37,1.65,1.65,0,0,0,.69-.15,1.07,1.07,0,0,0,.46-.43.86.86,0,0,0,.13-.39,1.35,1.35,0,0,0,0-.33V55.85a1.13,1.13,0,0,0-.15-.63,1.92,1.92,0,0,0-.67-.54,12,12,0,0,0-1.27-.53,3.5,3.5,0,0,1-1.53-1.06,3,3,0,0,1-.62-2v-.56a3.11,3.11,0,0,1,.86-2.2,3,3,0,0,1,4.3,0,3.1,3.1,0,0,1,.87,2.22v.56H116v-.56a1.66,1.66,0,0,0,0-.24.71.71,0,0,0,0-.21.73.73,0,0,0-.09-.22c0-.09-.12-.19-.21-.32a1,1,0,0,0-.87-.37,1.17,1.17,0,0,0-.9.39,1.46,1.46,0,0,0-.33,1v.73a1.29,1.29,0,0,0,.11.6,1.65,1.65,0,0,0,.59.46l.45.21.77.28a3.78,3.78,0,0,1,1.6,1.06,2.83,2.83,0,0,1,.71,2v1a3.9,3.9,0,0,1-.13,1.1,4.18,4.18,0,0,1-.76,1.3,3.22,3.22,0,0,1-4.54-.22,3.87,3.87,0,0,1-.73-2.18v-.45h1.81Z" style="fill:#fff"/></g><g id="text6075-0-6-9-2-5-9-1-4-7-6"><path id="path2623" d="M16,42.94V17.48L11.72,20.7V16.14L16,13h4.24V42.94Z" style="fill:#fff"/><path id="path2625" d="M36,27.62a3.54,3.54,0,0,1,.45,1.3,8.54,8.54,0,0,1,.13,1.65v5.72a9.53,9.53,0,0,1-.22,2.05,9.93,9.93,0,0,1-1.34,2.77q-1.15,1.83-4.38,2.1A7.83,7.83,0,0,1,27,42.36a5.58,5.58,0,0,1-2.28-2.1,9.34,9.34,0,0,1-.8-2.1,11.93,11.93,0,0,1-.13-1.87V31.6c0-.66,0-1.12,0-1.39a4.94,4.94,0,0,1,.31-1.16l5.94-16h4.83L30.09,25.57A5.3,5.3,0,0,1,32,25.26h.41A4.69,4.69,0,0,1,36,27.62ZM32,29.9A2.11,2.11,0,0,0,30.18,29a1.81,1.81,0,0,0-1.52.71,3.1,3.1,0,0,0-.53,1.88v4.69a3.84,3.84,0,0,0,.44,1.78,1.79,1.79,0,0,0,1.66.81h.26A1.47,1.47,0,0,0,32,38.07a4.29,4.29,0,0,0,.36-1.78V31.6a4,4,0,0,0-.09-.94A1.52,1.52,0,0,0,32,29.9Z" style="fill:#fff"/></g><path id="rect8292-7-8" d="M107.77,66.45c-3.39,0-3.9,1.93-4,4.19C107.18,70.67,107.7,68.71,107.77,66.45ZM98.66,67c-2,2.76-.65,4.3,1.16,5.65C101.78,69.88,100.47,68.34,98.66,67Zm-4,4.13c-1.95,2.78-.64,4.31,1.18,5.65C97.84,74,96.53,72.47,94.71,71.12Zm7.82.55a.45.45,0,0,0-.31.12A24.14,24.14,0,0,0,96,79.74a12.35,12.35,0,0,0-.7,2.13c-1.77-1.76-2.41-3.64-4.68-3.6-5.46.1-8.29,8.58-15.87,8.63-10.71.08-9.86-12.92-30-13,12.07,9.65-.17,18.53,17.7,25.38-7.58,1.42-7.75,7.91-17.75,4.7,4.66,1.81,9.69,7.69,19.08,8v7c-10.69-.32-21-.75-21-.75v4.46s24.93-1.08,37.46-1.08a33.78,33.78,0,0,1,9.07,1.27v2.82a1.86,1.86,0,0,0,1.87,1.87h10.55a1.87,1.87,0,0,0,1.87-1.87V115.33a1.87,1.87,0,0,0-1.87-1.87H91.14a1.87,1.87,0,0,0-1.87,1.87v2.77a33.89,33.89,0,0,1-9.07,1.26c-2.82,0-6.3,0-9.94-.14V111.7c18.28-2.11,17.66-13.78,17.59-16.44C87.64,86.39,91.76,84.49,95,84a13.43,13.43,0,0,0,1,5.76.45.45,0,1,0,.84-.34h0a12.43,12.43,0,0,1-1-5.52L98,83.73a8.78,8.78,0,0,1-1.9-1.15,11.92,11.92,0,0,1,.75-2.49,23.62,23.62,0,0,1,6-7.64.45.45,0,0,0,0-.63A.45.45,0,0,0,102.53,71.67Zm2.57,1.8a4.73,4.73,0,0,0-2.91,1.7c2.46,2.33,4.17,1.25,5.76-.36A3.93,3.93,0,0,0,105.1,73.47Zm-3.58,4.3a5.25,5.25,0,0,0-2.82,1.15c2,2.75,3.85,2,5.72.73C103.43,78.28,102.47,77.77,101.52,77.77ZM89.88,108.32A1.87,1.87,0,0,0,88,110.19v.38a1.87,1.87,0,0,0,1.87,1.87h13a1.86,1.86,0,0,0,1.86-1.87v-.38a1.87,1.87,0,0,0-1.86-1.87ZM68.2,111.89v7.28l-2.35-.07V112C66.66,112,67.44,111.94,68.2,111.89ZM39,117a1.86,1.86,0,0,0-1.87,1.87V122A1.86,1.86,0,0,0,39,123.86h.52A1.86,1.86,0,0,0,41.41,122v-3.17A1.86,1.86,0,0,0,39.54,117Zm50.86,11.4A1.88,1.88,0,0,0,88,130.24v.38a1.87,1.87,0,0,0,1.87,1.87h13a1.87,1.87,0,0,0,1.86-1.87v-.38a1.87,1.87,0,0,0-1.86-1.88Z" style="fill:#fff;fill-rule:evenodd"/></g></g></svg>