<svg xmlns="http://www.w3.org/2000/svg" viewBox="0 0 148.09 148.33"><g id="Layer_2" data-name="Layer 2"><g id="svg2"><path id="rect8528-63-2-4" d="M.83,0H147.27a.83.83,0,0,1,.82.83V147.51a.82.82,0,0,1-.82.82H.83a.82.82,0,0,1-.83-.82V.83A.83.83,0,0,1,.83,0Z" style="fill:#00aed9;fill-rule:evenodd"/><g id="text6065-3-2-9-6-6"><path id="path2037" d="M49,22.6a5.86,5.86,0,0,1-.08,1,2.44,2.44,0,0,1-.37.94,2.79,2.79,0,0,1-.43.5,3,3,0,0,1-.56.41,3.44,3.44,0,0,1-.65.28,2.16,2.16,0,0,1-.69.11,3.32,3.32,0,0,1-1.54-.35,2.46,2.46,0,0,1-1-.9,3.3,3.3,0,0,1-.42-1,8,8,0,0,1-.07-1V16.16a4.48,4.48,0,0,1,.09-.94,3.19,3.19,0,0,1,.45-.91,2.75,2.75,0,0,1,1-.82A2.52,2.52,0,0,1,46,13.13a2.94,2.94,0,0,1,3,3v.67H47.26v-.67a1.32,1.32,0,0,0-.3-.88,1,1,0,0,0-.84-.35,1,1,0,0,0-.82.35,1.42,1.42,0,0,0-.28.88v6.92a1.91,1.91,0,0,0,.26.64,1,1,0,0,0,.86.37c.43,0,.71-.11.84-.34a2.22,2.22,0,0,0,.25-.48,2.64,2.64,0,0,0,0-.45v-.63H49Z" style="fill:#fff"/><path id="path2039" d="M55.66,25.75H50.32V13.25h1.79V24h3.55Z" style="fill:#fff"/><path id="path2041" d="M61.59,24v1.79H56.23V13.25h5.36v1.64H58v3.69h3.14v1.7H58V24Z" style="fill:#fff"/><path id="path2043" d="M61.92,25.75l2.8-12.5h1.55l2.8,12.5H67.15l-.5-2.69H64.33l-.52,2.69Zm2.73-4.35h1.68l-.84-4.55Z" style="fill:#fff"/><path id="path2045" d="M74.42,25.75l-2.78-7.6v7.6h-1.8V13.25h1.7l2.77,7.57V13.25H76.1v12.5Z" style="fill:#fff"/><path id="path2047" d="M85.12,25.75l-1.47-7.61-1.44,7.61H80.55l-1.81-12.5h1.9l.9,7.56L83,13.25H84.3l1.48,7.56.89-7.56h1.89L86.8,25.75Z" style="fill:#fff"/><path id="path2049" d="M88.11,25.75l2.8-12.5h1.55l2.8,12.5H93.33l-.5-2.69H90.51L90,25.75Zm2.72-4.35h1.68l-.84-4.55Z" style="fill:#fff"/><path id="path2051" d="M96.62,25.75V14.91H94.51V13.25h6v1.66H98.39V25.75Z" style="fill:#fff"/><path id="path2053" d="M106.92,24v1.79h-5.35V13.25h5.35v1.64h-3.58v3.69h3.13v1.7h-3.13V24Z" style="fill:#fff"/><path id="path2055" d="M107.84,25.75V13.25H111a2.78,2.78,0,0,1,2.07.85,2.9,2.9,0,0,1,.86,2.11v1.16A2.92,2.92,0,0,1,112.43,20l1.91,5.73h-1.91l-1.68-5.36h-1.12v5.36Zm4-7.33A1.19,1.19,0,0,0,112,18a2.1,2.1,0,0,0,.07-.58V16.21a1.36,1.36,0,0,0-.31-.93,1.11,1.11,0,0,0-.9-.37h-1.27v3.9h1.25A1.24,1.24,0,0,0,111.82,18.42Z" style="fill:#fff"/><path id="path2057" d="M42.83,43l2.8-12.51h1.55L50,43H48.06l-.5-2.69H45.24L44.72,43Zm2.73-4.35h1.68l-.84-4.56Z" style="fill:#fff"/><path id="path2059" d="M55.33,43l-2.78-7.6V43h-1.8V30.49h1.7l2.77,7.58V30.49H57V43Z" style="fill:#fff"/><path id="path2061" d="M61,30.49a2.82,2.82,0,0,1,2.07.86,2.76,2.76,0,0,1,.88,2v6.5a3.06,3.06,0,0,1-.84,2.24,2.92,2.92,0,0,1-2.17.86H58.11V30.49Zm1.17,9.41V33.4a1.13,1.13,0,0,0-.39-.87,1.26,1.26,0,0,0-.91-.36h-.94v9.17h.88c.91,0,1.36-.48,1.36-1.44Z" style="fill:#fff"/><path id="path2063" d="M69.13,39.88v.32a1.27,1.27,0,0,0,0,.22,1.73,1.73,0,0,0,.28.54,1.08,1.08,0,0,0,.94.38,1.58,1.58,0,0,0,.69-.15,1.13,1.13,0,0,0,.46-.43.94.94,0,0,0,.13-.39,1.48,1.48,0,0,0,0-.34V38.82a1.14,1.14,0,0,0-.15-.64,1.92,1.92,0,0,0-.67-.54,12.61,12.61,0,0,0-1.27-.52,3.61,3.61,0,0,1-1.53-1.07,2.94,2.94,0,0,1-.62-2v-.56a3.13,3.13,0,0,1,.86-2.21,2.84,2.84,0,0,1,2.13-.93,2.9,2.9,0,0,1,2.17.91,3.13,3.13,0,0,1,.87,2.23v.56H71.69v-.56a1,1,0,0,0,0-.25.65.65,0,0,0,0-.2.76.76,0,0,0-.09-.23l-.2-.31a1,1,0,0,0-.88-.38,1.15,1.15,0,0,0-.9.4,1.44,1.44,0,0,0-.33,1v.72a1.29,1.29,0,0,0,.11.6,1.71,1.71,0,0,0,.6.47c.1,0,.24.12.44.2l.77.28a3.8,3.8,0,0,1,1.6,1.07,2.81,2.81,0,0,1,.71,2v1a3.86,3.86,0,0,1-.13,1.1,4.2,4.2,0,0,1-.76,1.31,2.64,2.64,0,0,1-2.19.82,2.68,2.68,0,0,1-2.35-1,3.88,3.88,0,0,1-.73-2.19v-.45h1.81Z" style="fill:#fff"/><path id="path2065" d="M73.83,43l2.8-12.51h1.55L81,43H79.06l-.51-2.69H76.24L75.71,43Zm2.72-4.35h1.68l-.84-4.56Z" style="fill:#fff"/><path id="path2067" d="M86.46,43l-2.78-7.6V43H81.89V30.49h1.7l2.76,7.58V30.49h1.79V43Z" style="fill:#fff"/><path id="path2069" d="M89.32,43V30.49h1.77V43Z" style="fill:#fff"/><path id="path2071" d="M94.19,43V32.15H92.08V30.49h6v1.66H96V43Z" style="fill:#fff"/><path id="path2073" d="M97.48,43l2.8-12.51h1.55L104.63,43h-1.92l-.51-2.69H99.89L99.37,43Zm2.73-4.35h1.68l-.84-4.56Z" style="fill:#fff"/><path id="path2075" d="M106.2,43V32.15h-2.11V30.49h6v1.66H108V43Z" style="fill:#fff"/><path id="path2077" d="M111.08,43V30.49h1.77V43Z" style="fill:#fff"/><path id="path2079" d="M114.86,31.67a2.86,2.86,0,0,1,1.08-.93,2.9,2.9,0,0,1,1.38-.36,3.07,3.07,0,0,1,2.32,1.05,2.79,2.79,0,0,1,.56,1,3.9,3.9,0,0,1,.15,1.1V39.9a3.73,3.73,0,0,1-.12,1,2.83,2.83,0,0,1-.44,1,2.89,2.89,0,0,1-1,.9,2.76,2.76,0,0,1-1.42.37,3.43,3.43,0,0,1-.86-.11,3.83,3.83,0,0,1-.77-.34,3.64,3.64,0,0,1-.63-.46,2.25,2.25,0,0,1-.41-.55,3.47,3.47,0,0,1-.34-.93,5,5,0,0,1-.05-.82V33.53a3.62,3.62,0,0,1,.11-1,2.76,2.76,0,0,1,.43-.88Zm3.47,1a1.12,1.12,0,0,0-1-.53,1.34,1.34,0,0,0-.64.19,1.1,1.1,0,0,0-.43.39,1.56,1.56,0,0,0-.14.45,2,2,0,0,0,0,.37v6.58a.71.71,0,0,0,0,.2,1.63,1.63,0,0,0,.3.62,1.05,1.05,0,0,0,.93.39,1.21,1.21,0,0,0,.6-.15,1.16,1.16,0,0,0,.39-.37,1.89,1.89,0,0,0,.17-.41,3.28,3.28,0,0,0,0-.49V33.53a3.1,3.1,0,0,0,0-.52.81.81,0,0,0-.19-.35Z" style="fill:#fff"/><path id="path2081" d="M126.43,43l-2.78-7.6V43h-1.79V30.49h1.7l2.76,7.58V30.49h1.79V43Z" style="fill:#fff"/></g><g id="text6075-0-6-9-2-5"><path id="path2084" d="M28.39,27.11a3.56,3.56,0,0,1,.45,1.29A8.66,8.66,0,0,1,29,30.06v5.71a9.62,9.62,0,0,1-.22,2.06,10.37,10.37,0,0,1-1.34,2.77c-.78,1.22-2.23,1.92-4.38,2.1a8,8,0,0,1-3.66-.85,5.72,5.72,0,0,1-2.28-2.1,8.88,8.88,0,0,1-.8-2.1,12,12,0,0,1-.14-1.88V31.08c0-.65,0-1.11.05-1.38a4.7,4.7,0,0,1,.31-1.16l5.94-16h4.82L22.45,25.05a5.52,5.52,0,0,1,1.92-.31h.4a4.73,4.73,0,0,1,3.62,2.37Zm-4.06,2.28a2.13,2.13,0,0,0-1.79-.9,1.78,1.78,0,0,0-1.52.72,3,3,0,0,0-.53,1.87v4.69a3.73,3.73,0,0,0,.44,1.79,1.77,1.77,0,0,0,1.65.8h.27a1.47,1.47,0,0,0,1.52-.8,4.34,4.34,0,0,0,.36-1.79V31.08a3.89,3.89,0,0,0-.09-.93A1.52,1.52,0,0,0,24.33,29.39Z" style="fill:#fff"/></g><path id="path7044-1" d="M47.83,59.8a1.29,1.29,0,0,0-1.25,1.56l8.73,53.11c.12.68.55,1.32,1.25,1.32H67.17l.78,8.66H63.42l10.73,10.72,10.72-10.72H80.35l.78-8.66h10.6A1.4,1.4,0,0,0,93,114.47l8.73-53.11a1.28,1.28,0,0,0-1.24-1.56Zm1.61,2.64H98.85l-1.46,8.88c-5.72-.67-14.31,6.67-24,1.82-11.87-6-12.13.47-22.24-.07ZM74.11,81c4.66,8.08,8.64,11.19,8.64,16.65,0,3.65-2.3,8.38-8.64,8.38s-8.65-4.73-8.65-8.38C65.46,92.2,69.45,89.09,74.11,81Z" style="fill:#fff"/></g></g></svg>