<svg xmlns="http://www.w3.org/2000/svg" viewBox="0 0 148.09 148.33"><g id="Layer_2" data-name="Layer 2"><g id="svg2"><path id="rect8528-63-2-4-3-6" d="M.83,0H147.27a.83.83,0,0,1,.82.83V147.51a.82.82,0,0,1-.82.82H.83a.82.82,0,0,1-.83-.82V.83A.83.83,0,0,1,.83,0Z" style="fill:#f99d26;fill-rule:evenodd"/><g id="text6065-3-2-9-6-6-5-0-0-8-8"><path id="path2318" d="M42.66,22.12v.31a.79.79,0,0,0,0,.23,1.52,1.52,0,0,0,.28.54,1,1,0,0,0,.93.37,1.58,1.58,0,0,0,.69-.15,1.1,1.1,0,0,0,.47-.43,1,1,0,0,0,.13-.39,2,2,0,0,0,0-.33V21.05a1.13,1.13,0,0,0-.14-.63,2,2,0,0,0-.68-.54,11.16,11.16,0,0,0-1.27-.53,3.5,3.5,0,0,1-1.53-1.06,3,3,0,0,1-.61-2v-.56a3.06,3.06,0,0,1,.86-2.2A2.8,2.8,0,0,1,44,12.62a2.83,2.83,0,0,1,2.17.91A3.11,3.11,0,0,1,47,15.75v.56h-1.8v-.56a1.77,1.77,0,0,0,0-.24,1.36,1.36,0,0,0,0-.21.8.8,0,0,0-.1-.22,3.69,3.69,0,0,0-.2-.32,1,1,0,0,0-.88-.37,1.14,1.14,0,0,0-.89.39,1.42,1.42,0,0,0-.34,1v.73a1.43,1.43,0,0,0,.11.6,1.81,1.81,0,0,0,.6.46l.45.21.76.28a3.87,3.87,0,0,1,1.61,1.06,2.86,2.86,0,0,1,.71,2v1a4.31,4.31,0,0,1-.13,1.1,4.27,4.27,0,0,1-.77,1.3,2.61,2.61,0,0,1-2.18.83,2.67,2.67,0,0,1-2.36-1.05,3.86,3.86,0,0,1-.72-2.18v-.45h1.81Z" style="fill:#fff"/><path id="path2320" d="M53.64,23.93a3.26,3.26,0,0,1-1.07,1,2.55,2.55,0,0,1-1.41.4,2.66,2.66,0,0,1-.79-.12,3.62,3.62,0,0,1-.71-.28,3.73,3.73,0,0,1-.6-.41,1.94,1.94,0,0,1-.39-.5,4,4,0,0,1-.37-.92,4.44,4.44,0,0,1-.08-.84V12.73H50v9.8l0,.18a1.8,1.8,0,0,0,.28.53,1,1,0,0,0,.84.33.92.92,0,0,0,.81-.39,1.6,1.6,0,0,0,.28-.9V12.73h1.79v9.55a4,4,0,0,1-.09.86,2.85,2.85,0,0,1-.32.79Z" style="fill:#fff"/><path id="path2322" d="M56.68,22.12v.31a1.55,1.55,0,0,0,0,.23,2,2,0,0,0,.28.54,1.08,1.08,0,0,0,.94.37,1.58,1.58,0,0,0,.69-.15,1.07,1.07,0,0,0,.46-.43,1,1,0,0,0,.14-.39,2,2,0,0,0,0-.33V21.05a1.13,1.13,0,0,0-.15-.63,1.92,1.92,0,0,0-.67-.54,12,12,0,0,0-1.27-.53,3.5,3.5,0,0,1-1.53-1.06,3,3,0,0,1-.61-2v-.56a3.1,3.1,0,0,1,.85-2.2,3,3,0,0,1,4.3,0A3.1,3.1,0,0,1,61,15.75v.56H59.23v-.56a.9.9,0,0,0,0-.24,1.41,1.41,0,0,0,0-.21,1.29,1.29,0,0,0-.1-.22l-.2-.32a1,1,0,0,0-.88-.37,1.17,1.17,0,0,0-.9.39,1.46,1.46,0,0,0-.33,1v.73a1.29,1.29,0,0,0,.11.6,1.81,1.81,0,0,0,.6.46l.44.21.77.28a3.87,3.87,0,0,1,1.61,1.06,2.85,2.85,0,0,1,.7,2v1a3.9,3.9,0,0,1-.13,1.1,4.18,4.18,0,0,1-.76,1.3,3.22,3.22,0,0,1-4.54-.22,3.87,3.87,0,0,1-.73-2.18v-.45h1.82Z" style="fill:#fff"/><path id="path2324" d="M63.44,25.23V14.39H61.33V12.73h6v1.66H65.21V25.23Z" style="fill:#fff"/><path id="path2326" d="M66.44,25.23l2.8-12.5h1.55l2.8,12.5H71.67l-.51-2.68H68.85l-.53,2.68Zm2.72-4.35h1.68L70,16.33Z" style="fill:#fff"/><path id="path2328" d="M74.5,25.23V12.73h1.77v12.5Z" style="fill:#fff"/><path id="path2330" d="M82.19,25.23l-2.78-7.59v7.59h-1.8V12.73h1.7l2.77,7.58V12.73h1.79v12.5Z" style="fill:#fff"/><path id="path2332" d="M84.14,25.23l2.8-12.5h1.55l2.8,12.5H89.37l-.51-2.68H86.55L86,25.23Zm2.73-4.35h1.68l-.84-4.55Z" style="fill:#fff"/><path id="path2334" d="M94.91,12.73A2.44,2.44,0,0,1,96,13a3.79,3.79,0,0,1,1.14.84,2.51,2.51,0,0,1,.62,1.87v.95a2.05,2.05,0,0,1-1.14,2,2.27,2.27,0,0,1,1.14,2.1v1.45a3,3,0,0,1-.86,2.19,2.9,2.9,0,0,1-2.17.85H92V12.73ZM96,16.44v-.76a1.26,1.26,0,0,0-.33-.92,1.21,1.21,0,0,0-.9-.35h-1v3.45H94.8a1,1,0,0,0,.89-.37,1.74,1.74,0,0,0,.28-1Zm0,5.75V20.74a1.3,1.3,0,0,0-.33-.94,1.16,1.16,0,0,0-.9-.35h-1v4h1a1.19,1.19,0,0,0,.88-.35A1.35,1.35,0,0,0,96,22.19Z" style="fill:#fff"/><path id="path2336" d="M104,25.23H98.68V12.73h1.79V23.44H104Z" style="fill:#fff"/><path id="path2338" d="M109.88,23.44v1.79h-5.36V12.73h5.36v1.64H106.3v3.7h3.13v1.69H106.3v3.68Z" style="fill:#fff"/><path id="path2340" d="M118,22.08a6.07,6.07,0,0,1-.08,1,2.31,2.31,0,0,1-.37.93,2.44,2.44,0,0,1-.43.5,3,3,0,0,1-.56.41,2.9,2.9,0,0,1-.65.28,2.18,2.18,0,0,1-.69.12,3.26,3.26,0,0,1-1.53-.36,2.34,2.34,0,0,1-1-.89,3.4,3.4,0,0,1-.41-1,6.36,6.36,0,0,1-.08-1V15.64a4.31,4.31,0,0,1,.09-.93,3.24,3.24,0,0,1,.45-.92,2.75,2.75,0,0,1,1-.82,2.53,2.53,0,0,1,1.29-.35,2.92,2.92,0,0,1,3,3v.67H116.2v-.67a1.32,1.32,0,0,0-.29-.88,1,1,0,0,0-.84-.35,1.05,1.05,0,0,0-.83.35,1.42,1.42,0,0,0-.28.88v6.92a1.76,1.76,0,0,0,.27.64,1,1,0,0,0,.85.37q.65,0,.84-.33a2.47,2.47,0,0,0,.25-.49,2.64,2.64,0,0,0,0-.45v-.63H118Z" style="fill:#fff"/><path id="path2342" d="M119,25.23V12.73h1.77v12.5Z" style="fill:#fff"/><path id="path2344" d="M123.71,25.23V14.39H121.6V12.73h6v1.66h-2.15V25.23Z" style="fill:#fff"/><path id="path2346" d="M128.39,25.23V12.73h1.77v12.5Z" style="fill:#fff"/><path id="path2348" d="M136.5,23.44v1.79h-5.36V12.73h5.36v1.64h-3.58v3.7h3.13v1.69h-3.13v3.68Z" style="fill:#fff"/><path id="path2350" d="M138.86,22.12v.31a1.4,1.4,0,0,0,0,.23,2,2,0,0,0,.28.54,1.07,1.07,0,0,0,.93.37,1.66,1.66,0,0,0,.7-.15,1.07,1.07,0,0,0,.46-.43.86.86,0,0,0,.13-.39,1.35,1.35,0,0,0,0-.33V21.05a1.13,1.13,0,0,0-.15-.63,1.92,1.92,0,0,0-.67-.54,12,12,0,0,0-1.27-.53,3.5,3.5,0,0,1-1.53-1.06,3,3,0,0,1-.62-2v-.56a3.11,3.11,0,0,1,.86-2.2,3,3,0,0,1,4.29,0,3.07,3.07,0,0,1,.88,2.22v.56h-1.79v-.56a1.66,1.66,0,0,0,0-.24.71.71,0,0,0,0-.21.73.73,0,0,0-.09-.22c0-.09-.12-.19-.21-.32a1,1,0,0,0-.87-.37,1.17,1.17,0,0,0-.9.39,1.47,1.47,0,0,0-.34,1v.73a1.28,1.28,0,0,0,.12.6,1.65,1.65,0,0,0,.59.46l.45.21.77.28a3.84,3.84,0,0,1,1.6,1.06,2.82,2.82,0,0,1,.71,2v1a3.9,3.9,0,0,1-.13,1.1,4.18,4.18,0,0,1-.76,1.3,3.22,3.22,0,0,1-4.54-.22,3.8,3.8,0,0,1-.73-2.18v-.45h1.81Z" style="fill:#fff"/><path id="path2352" d="M40.86,42.48,43.66,30h1.55L48,42.48H46.09l-.5-2.69H43.27l-.52,2.69Zm2.73-4.35h1.68l-.84-4.55Z" style="fill:#fff"/><path id="path2354" d="M53.26,42.48l-2.78-7.6v7.6h-1.8V30h1.7l2.76,7.58V30h1.8V42.48Z" style="fill:#fff"/><path id="path2356" d="M58.88,30a2.82,2.82,0,0,1,2.07.86,2.77,2.77,0,0,1,.88,2.06v6.49A3.06,3.06,0,0,1,61,41.62a2.91,2.91,0,0,1-2.17.86H56V30Zm1.17,9.41V32.89a1.15,1.15,0,0,0-.39-.88,1.26,1.26,0,0,0-.91-.36h-.94v9.17h.88c.91,0,1.36-.48,1.36-1.44Z" style="fill:#fff"/><path id="path2358" d="M70.68,39.33a6,6,0,0,1-.07,1,2.32,2.32,0,0,1-.38.94,2.72,2.72,0,0,1-.42.5,3.36,3.36,0,0,1-.56.41,3.28,3.28,0,0,1-.66.28,2.07,2.07,0,0,1-.69.11,3.38,3.38,0,0,1-1.53-.35,2.42,2.42,0,0,1-1-.9,3.21,3.21,0,0,1-.41-1,6.28,6.28,0,0,1-.07-1V32.89A4.48,4.48,0,0,1,65,32a2.74,2.74,0,0,1,.45-.91,2.57,2.57,0,0,1,1-.82,2.52,2.52,0,0,1,1.29-.36,2.9,2.9,0,0,1,2.14.86,2.87,2.87,0,0,1,.86,2.17v.67H68.91v-.67a1.32,1.32,0,0,0-.3-.88A1.14,1.14,0,0,0,67,32a1.36,1.36,0,0,0-.28.88v6.92a1.57,1.57,0,0,0,.26.64,1,1,0,0,0,.86.37.9.9,0,0,0,.84-.34,1.71,1.71,0,0,0,.24-.48,1.82,1.82,0,0,0,0-.45v-.63h1.77Z" style="fill:#fff"/><path id="path2360" d="M72.4,31.15a2.86,2.86,0,0,1,1.08-.93,2.9,2.9,0,0,1,1.38-.36,3.11,3.11,0,0,1,1.29.28,2.81,2.81,0,0,1,1,.77,2.61,2.61,0,0,1,.56,1,3.8,3.8,0,0,1,.15,1.1v6.36a3.65,3.65,0,0,1-.11,1,2.61,2.61,0,0,1-.45,1,2.93,2.93,0,0,1-2.4,1.27,3,3,0,0,1-.86-.11,4.46,4.46,0,0,1-.77-.33,3.83,3.83,0,0,1-.63-.47,2.41,2.41,0,0,1-.41-.54,3.64,3.64,0,0,1-.34-.94,4.91,4.91,0,0,1-.06-.82V33A3.63,3.63,0,0,1,72,32a2.87,2.87,0,0,1,.43-.88Zm3.47,1a1.11,1.11,0,0,0-1-.52,1.3,1.3,0,0,0-.64.18,1.2,1.2,0,0,0-.43.4,1.91,1.91,0,0,0-.15.44,3,3,0,0,0,0,.38v6.57a1.41,1.41,0,0,0,0,.2,2,2,0,0,0,.3.62,1.08,1.08,0,0,0,.94.39,1.15,1.15,0,0,0,.59-.15,1,1,0,0,0,.4-.37,1.43,1.43,0,0,0,.16-.41,2.25,2.25,0,0,0,0-.49V33a2.2,2.2,0,0,0,0-.53.73.73,0,0,0-.18-.35Z" style="fill:#fff"/><path id="path2362" d="M84.84,42.48V34.87L83.05,40.2h-.89l-1.78-5.33v7.61H78.59V30h1.68l2.37,6.67L85,30h1.65V42.48Z" style="fill:#fff"/><path id="path2364" d="M93.59,42.48V34.87L91.8,40.2h-.9l-1.77-5.33v7.61h-1.8V30H89l2.38,6.67L93.72,30h1.64V42.48Z" style="fill:#fff"/><path id="path2366" d="M102.1,41.17a3.19,3.19,0,0,1-1.07,1,2.79,2.79,0,0,1-2.2.28,4,4,0,0,1-.71-.28,3.73,3.73,0,0,1-.6-.41,1.94,1.94,0,0,1-.39-.5,3.75,3.75,0,0,1-.37-.92,4.44,4.44,0,0,1-.08-.84V30h1.8v9.8l0,.19a1.57,1.57,0,0,0,.28.52,1,1,0,0,0,.84.34.92.92,0,0,0,.81-.39,1.62,1.62,0,0,0,.28-.9V30h1.79v9.56a3.44,3.44,0,0,1-.1.86,2.5,2.5,0,0,1-.31.78Z" style="fill:#fff"/><path id="path2368" d="M108.14,42.48l-2.78-7.6v7.6h-1.79V30h1.7L108,37.55V30h1.79V42.48Z" style="fill:#fff"/><path id="path2370" d="M110.8,42.48V30h1.78V42.48Z" style="fill:#fff"/><path id="path2372" d="M115.84,42.48V31.64h-2.11V30h6v1.67h-2.15V42.48Z" style="fill:#fff"/><path id="path2374" d="M120.15,42.48V30h1.78V42.48Z" style="fill:#fff"/><path id="path2376" d="M128.38,40.69v1.79H123V30h5.35v1.65H124.8v3.69h3.14V37H124.8v3.68Z" style="fill:#fff"/><path id="path2378" d="M130.51,39.36v.32a1.62,1.62,0,0,0,0,.23,2,2,0,0,0,.28.54,1.08,1.08,0,0,0,.94.37,1.58,1.58,0,0,0,.69-.15,1.1,1.1,0,0,0,.47-.43,1.37,1.37,0,0,0,.13-.39,2.24,2.24,0,0,0,0-.34V38.3a1.11,1.11,0,0,0-.15-.63,1.81,1.81,0,0,0-.67-.55c-.23-.12-.66-.29-1.27-.52a3.59,3.59,0,0,1-1.53-1.06,3,3,0,0,1-.61-2V33a3.1,3.1,0,0,1,.85-2.2,2.81,2.81,0,0,1,2.13-.94,2.86,2.86,0,0,1,2.17.92,3.11,3.11,0,0,1,.88,2.22v.56h-1.8V33a.9.9,0,0,0,0-.24,1.34,1.34,0,0,0,0-.21,1,1,0,0,0-.1-.22l-.2-.32a1,1,0,0,0-.88-.37,1.17,1.17,0,0,0-.9.39,1.44,1.44,0,0,0-.33,1v.73a1.38,1.38,0,0,0,.11.59,1.69,1.69,0,0,0,.6.47l.45.21.76.28a3.78,3.78,0,0,1,1.61,1.06,2.86,2.86,0,0,1,.71,2v1a3.9,3.9,0,0,1-.14,1.11,4.3,4.3,0,0,1-.76,1.3,2.62,2.62,0,0,1-2.18.82,2.69,2.69,0,0,1-2.36-1,3.86,3.86,0,0,1-.72-2.19v-.44h1.81Z" style="fill:#fff"/></g><g id="text6075-0-6-9-2-5-9-0-9-4-2"><path id="path2381" d="M14.85,42.25V16.79L10.56,20V15.45l4.29-3.12h4.24V42.25Z" style="fill:#fff"/><path id="path2383" d="M26.2,42.25V16.79L21.91,20V15.45l4.29-3.12h4.24V42.25Z" style="fill:#fff"/></g><path id="path7902-0" d="M37.54,97.79,48,111.56c.39.51.28,1.12-.55,1.12H26.09c-.83,0-.93-.61-.55-1.12L36,97.79c.51-.67,1-.66,1.51,0ZM103.2,103h21.2a.9.9,0,0,1,.9.9v3.75a.9.9,0,0,1-.9.9H103.2a.9.9,0,0,1-.9-.9v-3.75A.9.9,0,0,1,103.2,103Zm0,7.07a.89.89,0,0,0-.89.9v21.58a.89.89,0,0,0,.89.9h21.21a.89.89,0,0,0,.89-.9V110.93a.89.89,0,0,0-.89-.9Zm3.11,3.26h5.41a.9.9,0,0,1,.9.9v2.51a.89.89,0,0,1-.9.89h-5.41a.89.89,0,0,1-.9-.89v-2.51A.9.9,0,0,1,106.31,113.29Zm10,0h5.41a.9.9,0,0,1,.9.9v2.51a.89.89,0,0,1-.9.89h-5.41a.89.89,0,0,1-.9-.89v-2.51A.9.9,0,0,1,116.27,113.29Zm-10,7.37h5.41a.9.9,0,0,1,.9.9v2.51a.89.89,0,0,1-.9.89h-5.41a.89.89,0,0,1-.9-.89v-2.51A.9.9,0,0,1,106.31,120.66Zm10,0h5.41a.9.9,0,0,1,.9.9v2.51a.89.89,0,0,1-.9.89h-5.41a.89.89,0,0,1-.9-.89v-2.51A.9.9,0,0,1,116.27,120.66Zm-64-62.32a.89.89,0,0,0-.9.89v73.28a.9.9,0,0,0,.9.9h20.7a.9.9,0,0,0,.9-.9V59.23a.89.89,0,0,0-.9-.89Zm4,10.25h3.17a.89.89,0,0,1,.89.9V73.3a.89.89,0,0,1-.89.9H56.28a.89.89,0,0,1-.89-.9V69.49A.89.89,0,0,1,56.28,68.59Zm9.67,0h3.16a.89.89,0,0,1,.89.9V73.3a.89.89,0,0,1-.89.9H66a.9.9,0,0,1-.9-.9V69.49A.9.9,0,0,1,66,68.59ZM56.28,81.28h3.17a.89.89,0,0,1,.89.89V86a.89.89,0,0,1-.89.89H56.28a.89.89,0,0,1-.89-.89V82.17A.89.89,0,0,1,56.28,81.28Zm9.67,0h3.16a.89.89,0,0,1,.89.89V86a.89.89,0,0,1-.89.89H66a.89.89,0,0,1-.9-.89V82.17A.89.89,0,0,1,66,81.28ZM56.28,94h3.17a.89.89,0,0,1,.89.89v3.81a.89.89,0,0,1-.89.9H56.28a.89.89,0,0,1-.89-.9V94.86A.89.89,0,0,1,56.28,94ZM66,94h3.16a.89.89,0,0,1,.89.89v3.81a.89.89,0,0,1-.89.9H66a.9.9,0,0,1-.9-.9V94.86A.89.89,0,0,1,66,94Zm-9.67,12.68h3.17a.89.89,0,0,1,.89.9v3.81a.89.89,0,0,1-.89.9H56.28a.89.89,0,0,1-.89-.9v-3.81A.89.89,0,0,1,56.28,106.65Zm9.67,0h3.16a.89.89,0,0,1,.89.9v3.81a.89.89,0,0,1-.89.9H66a.9.9,0,0,1-.9-.9v-3.81A.9.9,0,0,1,66,106.65Zm-9.67,12.69h3.17a.89.89,0,0,1,.89.9v3.81a.89.89,0,0,1-.89.9H56.28a.89.89,0,0,1-.89-.9v-3.81A.89.89,0,0,1,56.28,119.34Zm9.67,0h3.16a.89.89,0,0,1,.89.9v3.81a.89.89,0,0,1-.89.9H66a.9.9,0,0,1-.9-.9v-3.81A.9.9,0,0,1,66,119.34Zm11.42-18.93v32.1a.9.9,0,0,0,.9.9h20.4a.9.9,0,0,0,.9-.9V73.18c0-.5-.66-1.19-1.44-.19l-20,25.29a2.64,2.64,0,0,0-.79,2.13ZM96.51,80.34c.36,0,.42.86.42,1.24V87a.89.89,0,0,1-.89.89H91.86c-.53,0-1.43-.22-.89-.89L96,80.68C96.23,80.44,96.39,80.34,96.51,80.34Zm-5.89,10.6H96a.89.89,0,0,1,.89.9v2.51a.89.89,0,0,1-.89.89H90.62a.89.89,0,0,1-.9-.89V91.84A.9.9,0,0,1,90.62,90.94Zm-4.09,2c.35-.07.44.74.44,1.31v7.69a.89.89,0,0,1-.89.89H80.94c-.5,0-1.25-.39-.9-.89l6-8.59A.92.92,0,0,1,86.53,92.92Zm4.09,5.37H96a.89.89,0,0,1,.89.89v2.52a.89.89,0,0,1-.89.89H90.62a.89.89,0,0,1-.9-.89V99.18A.89.89,0,0,1,90.62,98.29Zm-9.68,7.37h5.14a.89.89,0,0,1,.89.89v2.52a.89.89,0,0,1-.89.89H80.94a.89.89,0,0,1-.9-.89v-2.52A.89.89,0,0,1,80.94,105.66Zm9.68,0H96a.89.89,0,0,1,.89.89v2.52A.89.89,0,0,1,96,110H90.62a.89.89,0,0,1-.9-.89v-2.52A.89.89,0,0,1,90.62,105.66Zm-9.68,7.63h5.14a.89.89,0,0,1,.89.9v2.51a.89.89,0,0,1-.89.89H80.94a.89.89,0,0,1-.9-.89v-2.51A.9.9,0,0,1,80.94,113.29Zm9.68,0H96a.89.89,0,0,1,.89.9v2.51a.89.89,0,0,1-.89.89H90.62a.89.89,0,0,1-.9-.89v-2.51A.9.9,0,0,1,90.62,113.29Zm-9.68,7.37h5.14a.89.89,0,0,1,.89.9v2.51a.89.89,0,0,1-.89.89H80.94a.89.89,0,0,1-.9-.89v-2.51A.9.9,0,0,1,80.94,120.66Zm9.68,0H96a.89.89,0,0,1,.89.9v2.51A.89.89,0,0,1,96,125H90.62a.89.89,0,0,1-.9-.89v-2.51A.9.9,0,0,1,90.62,120.66Zm-64.81-6a.89.89,0,0,0-.89.9v16.9a.89.89,0,0,0,.89.9h7.24s0-.07,0-.1v-9.84a1.4,1.4,0,0,1,1.39-1.4H39a1.4,1.4,0,0,1,1.4,1.4v9.84s0,.07,0,.1h6.83a.9.9,0,0,0,.9-.9v-16.9a.9.9,0,0,0-.9-.9Z" style="fill:#fff"/></g></g></svg>