<svg xmlns="http://www.w3.org/2000/svg" viewBox="0 0 148.09 148.33"><g id="Layer_2" data-name="Layer 2"><g id="svg2"><path id="rect8528-63-2" d="M.83,0H147.27a.83.83,0,0,1,.82.83V147.51a.82.82,0,0,1-.82.82H.83a.82.82,0,0,1-.83-.82V.83A.83.83,0,0,1,.83,0Z" style="fill:#ef402b;fill-rule:evenodd"/><g id="text6065-3-2-9-6"><path id="path2005" d="M49.59,24.45a3.21,3.21,0,0,1-1.1,1,3,3,0,0,1-1.48.37,3.15,3.15,0,0,1-2.41-1.15,3.43,3.43,0,0,1-.48-1A5,5,0,0,1,44,22.56V16.31a5,5,0,0,1,.09-.94,5.63,5.63,0,0,1,.69-1.32,2.5,2.5,0,0,1,2.28-.92,2.86,2.86,0,0,1,1.4.36,2.67,2.67,0,0,1,1,.88,2.53,2.53,0,0,1,.44,1,3.68,3.68,0,0,1,.12,1v.52H48.24v-.52a1,1,0,0,0,0-.26,1.55,1.55,0,0,0,0-.23,1.71,1.71,0,0,0-.28-.54,1,1,0,0,0-.88-.37,1,1,0,0,0-1,.39,2,2,0,0,0-.26.58,1.8,1.8,0,0,0,0,.43v6.57a1.38,1.38,0,0,0,0,.22,1.82,1.82,0,0,0,.28.58,1,1,0,0,0,1,.39q.73,0,.93-.39a3.54,3.54,0,0,0,.17-.34,1.86,1.86,0,0,0,.08-.26.83.83,0,0,0,0-.22V20.38H46.81V18.81H50v3.75c0,.26,0,.49,0,.67a2.09,2.09,0,0,1-.08.47,1.32,1.32,0,0,1-.15.39l-.18.36Z" style="fill:#fff"/><path id="path2007" d="M57.15,24v1.79H51.79V13.25h5.36v1.64H53.57v3.69H56.7v1.7H53.57V24Z" style="fill:#fff"/><path id="path2009" d="M62.38,25.75l-2.78-7.6v7.6H57.8V13.25h1.7l2.76,7.57V13.25h1.8v12.5Z" style="fill:#fff"/><path id="path2011" d="M68.14,13.25a2.81,2.81,0,0,1,2.07.85,2.77,2.77,0,0,1,.88,2.06v6.49a3.06,3.06,0,0,1-.84,2.24,2.89,2.89,0,0,1-2.17.86H65.3V13.25Zm1.17,9.4V16.16a1.15,1.15,0,0,0-.39-.88,1.25,1.25,0,0,0-.91-.35h-.94v9.16H68c.91,0,1.36-.48,1.36-1.44Z" style="fill:#fff"/><path id="path2013" d="M77.68,24v1.79H72.32V13.25h5.36v1.64H74.09v3.69h3.14v1.7H74.09V24Z" style="fill:#fff"/><path id="path2015" d="M78.59,25.75V13.25h3.14a2.78,2.78,0,0,1,2.07.85,2.9,2.9,0,0,1,.86,2.11v1.16A2.92,2.92,0,0,1,83.18,20l1.91,5.73H83.18L81.5,20.39H80.38v5.36Zm4-7.33a1.07,1.07,0,0,0,.22-.47,2.08,2.08,0,0,0,.08-.58V16.21a1.36,1.36,0,0,0-.32-.93,1.11,1.11,0,0,0-.9-.37H80.38v3.9h1.26a1.24,1.24,0,0,0,.93-.39Z" style="fill:#fff"/><path id="path2017" d="M49.49,41.21V43H44.14V30.49h5.35v1.64H45.91v3.7h3.14v1.7H45.91v3.68Z" style="fill:#fff"/><path id="path2019" d="M50.87,42a2.41,2.41,0,0,1-.58-1,5,5,0,0,1-.13-1.23V33.59A3.17,3.17,0,0,1,51,31.31a2.89,2.89,0,0,1,2.2-.93,2.94,2.94,0,0,1,2.11.88,2.8,2.8,0,0,1,.89,2.09v6.46a4,4,0,0,1,0,.8,2.55,2.55,0,0,1-.15.52l1.18,1-1,1.2-1.12-.9a3,3,0,0,1-2,.67,2.78,2.78,0,0,1-1.23-.3,3.24,3.24,0,0,1-1-.76Zm3-2.69.59.47V33.59a1.57,1.57,0,0,0-.33-1,1.15,1.15,0,0,0-.94-.43,1.18,1.18,0,0,0-.65.19,1.1,1.1,0,0,0-.41.45,1.33,1.33,0,0,0-.13.41,3.53,3.53,0,0,0,0,.39v6.35a1.66,1.66,0,0,0,.3,1,1.19,1.19,0,0,0,1,.43,1.32,1.32,0,0,0,.45-.11l-.82-.69Z" style="fill:#fff"/><path id="path2021" d="M63.36,41.69a3.19,3.19,0,0,1-1.07,1,2.62,2.62,0,0,1-1.41.39,3,3,0,0,1-.79-.11,5.52,5.52,0,0,1-.71-.28,4.51,4.51,0,0,1-.6-.41,1.83,1.83,0,0,1-.39-.51,4,4,0,0,1-.37-.91,4.44,4.44,0,0,1-.08-.84V30.49h1.8v9.8l0,.19a1.79,1.79,0,0,0,.28.52,1,1,0,0,0,.84.34A.92.92,0,0,0,61.7,41a1.65,1.65,0,0,0,.28-.9V30.49h1.79v9.56a4,4,0,0,1-.09.86,2.92,2.92,0,0,1-.32.78Z" style="fill:#fff"/><path id="path2023" d="M64.16,43,67,30.49h1.55L71.31,43H69.38l-.5-2.69H66.56L66,43Zm2.72-4.35h1.68l-.84-4.56Z" style="fill:#fff"/><path id="path2025" d="M77.58,43H72.24V30.49H74V41.21h3.55Z" style="fill:#fff"/><path id="path2027" d="M78.08,43V30.49h1.77V43Z" style="fill:#fff"/><path id="path2029" d="M83,43V32.15H80.84V30.49h6v1.66H84.73V43Z" style="fill:#fff"/><path id="path2031" d="M89.49,43V37.62l-2.42-7.13h1.86l1.46,4.89,1.48-4.89h1.88l-2.48,7.13V43Z" style="fill:#fff"/></g><g id="text6075-0-6-9-2"><path id="path2034" d="M24.16,23.18a4.59,4.59,0,0,1,2.23.62,4.41,4.41,0,0,1,1.7,1.48,4.64,4.64,0,0,1,.76,1.78A7.9,7.9,0,0,1,29.07,29v6.7a13.73,13.73,0,0,1-.09,1.7,7.22,7.22,0,0,1-.49,1.88,5.08,5.08,0,0,1-2.19,2.32,6.35,6.35,0,0,1-3.66,1.12,6.2,6.2,0,0,1-2.9-.72,6.11,6.11,0,0,1-2.15-1.83,6.39,6.39,0,0,1-1-2.19,9.61,9.61,0,0,1-.27-2.28v-.75h4.38v1.65a1.32,1.32,0,0,0,.13.53,3.38,3.38,0,0,0,.36.63,2.13,2.13,0,0,0,.62.49,2.28,2.28,0,0,0,.94.18,1.73,1.73,0,0,0,1.61-.67,2.76,2.76,0,0,0,.44-1,7.62,7.62,0,0,0,0-.85v-6.7a2.2,2.2,0,0,0,0-.44,1.4,1.4,0,0,0-.13-.54,1.34,1.34,0,0,0-.36-.58,1.46,1.46,0,0,0-.62-.49,1.67,1.67,0,0,0-.9-.22,2.06,2.06,0,0,0-2.09,1.6H16.83v-16H29.07v4H20.68v8a5.07,5.07,0,0,1,3.48-1.34Z" style="fill:#fff"/></g><path id="rect7038" d="M62.77,82.65v5.88H85.15V82.65Zm0,9.12v6.16H85.15V91.77ZM89.24,56.52v6.39h7.61L88.74,71a24.12,24.12,0,1,0-18,42.88V121H63.1v7.11h7.61V135h7.06v-6.95h7.55V121H77.77v-7.2A24.08,24.08,0,0,0,93.58,76.11l8-8v7h6.56V56.52ZM73.85,72.43A17.56,17.56,0,1,1,56.3,90h0A17.56,17.56,0,0,1,73.85,72.43Z" style="fill:#fff;fill-rule:evenodd"/></g></g></svg>