<svg xmlns="http://www.w3.org/2000/svg" viewBox="0 0 148.09 148.33"><g id="Layer_2" data-name="Layer 2"><g id="svg2"><path id="rect8528-63-2-4-3-6-0-4" d="M.83,0H147.27a.83.83,0,0,1,.82.83V147.51a.82.82,0,0,1-.82.82H.83a.82.82,0,0,1-.83-.82V.83A.83.83,0,0,1,.83,0Z" style="fill:#f36d25;fill-rule:evenodd"/><g id="text6065-3-2-9-6-6-5-0-0"><path id="path2197" d="M35.67,25.23V12.73h1.78v12.5Z" style="fill:#fff"/><path id="path2199" d="M42.73,25.23l-2.79-7.59v7.59H38.15V12.73h1.7l2.76,7.58V12.73h1.8v12.5Z" style="fill:#fff"/><path id="path2201" d="M48.12,12.73a2.82,2.82,0,0,1,2.08.86,2.74,2.74,0,0,1,.87,2.05v6.5a3.08,3.08,0,0,1-.84,2.24,2.89,2.89,0,0,1-2.16.85H45.29V12.73Zm1.18,9.41v-6.5a1.15,1.15,0,0,0-.39-.88,1.32,1.32,0,0,0-.92-.35h-.93v9.16h.88c.91,0,1.36-.48,1.36-1.43Z" style="fill:#fff"/><path id="path2203" d="M57.51,23.93a3.14,3.14,0,0,1-1.06,1,2.58,2.58,0,0,1-1.42.4,2.64,2.64,0,0,1-.78-.12,3.39,3.39,0,0,1-.71-.28,3.33,3.33,0,0,1-.6-.41,1.94,1.94,0,0,1-.39-.5,3.6,3.6,0,0,1-.37-.92,4.44,4.44,0,0,1-.08-.84V12.73h1.79v9.8l0,.18a1.58,1.58,0,0,0,.28.53,1,1,0,0,0,.84.33.89.89,0,0,0,.8-.39,1.52,1.52,0,0,0,.28-.9V12.73h1.79v9.55a4,4,0,0,1-.09.86,2.58,2.58,0,0,1-.32.79Z" style="fill:#fff"/><path id="path2205" d="M60.43,22.12v.31a1.4,1.4,0,0,0,0,.23,1.72,1.72,0,0,0,.28.54,1,1,0,0,0,.93.37,1.58,1.58,0,0,0,.69-.15,1.1,1.1,0,0,0,.47-.43A1,1,0,0,0,63,22.6a2.11,2.11,0,0,0,0-.33V21.05a1.13,1.13,0,0,0-.15-.63,2,2,0,0,0-.68-.54,10.79,10.79,0,0,0-1.26-.53,3.59,3.59,0,0,1-1.54-1.06,3,3,0,0,1-.61-2v-.56a3.11,3.11,0,0,1,.86-2.2,3,3,0,0,1,4.29,0,3.07,3.07,0,0,1,.88,2.22v.56H63v-.56a1.66,1.66,0,0,0,0-.24,1.36,1.36,0,0,0,0-.21.73.73,0,0,0-.09-.22c0-.09-.12-.19-.21-.32a1,1,0,0,0-.88-.37,1.14,1.14,0,0,0-.89.39,1.42,1.42,0,0,0-.34,1v.73a1.43,1.43,0,0,0,.11.6,1.81,1.81,0,0,0,.6.46l.45.21.76.28a3.81,3.81,0,0,1,1.61,1.06,2.86,2.86,0,0,1,.71,2v1a4.31,4.31,0,0,1-.13,1.1,4.27,4.27,0,0,1-.77,1.3,2.61,2.61,0,0,1-2.18.83,2.65,2.65,0,0,1-2.35-1.05,3.8,3.8,0,0,1-.73-2.18v-.45h1.81Z" style="fill:#fff"/><path id="path2207" d="M66.64,25.23V14.39H64.53V12.73h6v1.66H68.42V25.23Z" style="fill:#fff"/><path id="path2209" d="M70.93,25.23V12.73h3.14a2.76,2.76,0,0,1,2.07.86A2.87,2.87,0,0,1,77,15.7v1.15a2.92,2.92,0,0,1-1.48,2.65l1.91,5.73H75.52l-1.68-5.35H72.72v5.35Zm4-7.33a1.13,1.13,0,0,0,.22-.47,2.08,2.08,0,0,0,.08-.58V15.7a1.37,1.37,0,0,0-.32-.94,1.11,1.11,0,0,0-.9-.37H72.72v3.9H74a1.24,1.24,0,0,0,.94-.39Z" style="fill:#fff"/><path id="path2211" d="M79.16,25.23V19.86l-2.42-7.13H78.6l1.46,4.89,1.47-4.89h1.89l-2.48,7.13v5.37Z" style="fill:#fff"/><path id="path2213" d="M82.33,26.56v-3.1h1.79v1.77Z" style="fill:#fff"/><path id="path2215" d="M86.84,25.23V12.73h1.77v12.5Z" style="fill:#fff"/><path id="path2217" d="M94.1,25.23l-2.78-7.59v7.59H89.53V12.73h1.7L94,20.31V12.73h1.79v12.5Z" style="fill:#fff"/><path id="path2219" d="M100.86,25.23l-2.78-7.59v7.59h-1.8V12.73H98l2.77,7.58V12.73h1.79v12.5Z" style="fill:#fff"/><path id="path2221" d="M103.63,13.9a3.12,3.12,0,0,1,1.08-.93,2.89,2.89,0,0,1,1.38-.35,3,3,0,0,1,1.29.28,2.91,2.91,0,0,1,1,.76,2.75,2.75,0,0,1,.56,1,3.8,3.8,0,0,1,.15,1.1v6.37a3.6,3.6,0,0,1-.12,1A2.94,2.94,0,0,1,107.57,25a2.77,2.77,0,0,1-1.42.38,3,3,0,0,1-.86-.12,4.06,4.06,0,0,1-.77-.33,3.69,3.69,0,0,1-.63-.47,2.27,2.27,0,0,1-.41-.54,3.73,3.73,0,0,1-.34-.93,6.56,6.56,0,0,1,0-.82V15.77a3.75,3.75,0,0,1,.11-1,3.11,3.11,0,0,1,.43-.88Zm3.47,1a1.11,1.11,0,0,0-1-.52,1.18,1.18,0,0,0-.63.19,1,1,0,0,0-.43.39,1.33,1.33,0,0,0-.15.45,1.87,1.87,0,0,0,0,.37v6.57a1.83,1.83,0,0,0,0,.21,1.61,1.61,0,0,0,.3.61,1.05,1.05,0,0,0,.93.39,1.21,1.21,0,0,0,.6-.15,1,1,0,0,0,.39-.37,1.38,1.38,0,0,0,.17-.41,3.14,3.14,0,0,0,0-.48V15.77a3,3,0,0,0,0-.52.79.79,0,0,0-.19-.36Z" style="fill:#fff"/><path id="path2223" d="M111.88,25.23l-2.55-12.5h1.86l1.46,8.68,1.47-8.68H116l-2.61,12.5Z" style="fill:#fff"/><path id="path2225" d="M115.25,25.23l2.8-12.5h1.55l2.8,12.5h-1.92l-.5-2.68h-2.32l-.52,2.68ZM118,20.88h1.68l-.84-4.55Z" style="fill:#fff"/><path id="path2227" d="M123.61,25.23V14.39H121.5V12.73h6v1.66h-2.15V25.23Z" style="fill:#fff"/><path id="path2229" d="M127.86,25.23V12.73h1.77v12.5Z" style="fill:#fff"/><path id="path2231" d="M131,13.9a3.06,3.06,0,0,1,1.09-.93,2.83,2.83,0,0,1,1.38-.35,2.89,2.89,0,0,1,1.28.28,2.86,2.86,0,0,1,1.59,1.77,3.8,3.8,0,0,1,.15,1.1v6.37a4.07,4.07,0,0,1-.11,1,3,3,0,0,1-2.86,2.23,3.08,3.08,0,0,1-.86-.12,4,4,0,0,1-.76-.33,3.41,3.41,0,0,1-.64-.47,2.27,2.27,0,0,1-.41-.54,3.63,3.63,0,0,1-.33-.93,5,5,0,0,1-.06-.82V15.77a4.22,4.22,0,0,1,.11-1,3.11,3.11,0,0,1,.43-.88Zm3.47,1a1.1,1.1,0,0,0-1-.52,1.18,1.18,0,0,0-.63.19,1.1,1.1,0,0,0-.43.39,2,2,0,0,0-.15.45,3.15,3.15,0,0,0,0,.37v6.57a1.83,1.83,0,0,0,0,.21,1.61,1.61,0,0,0,.3.61,1.07,1.07,0,0,0,.93.39,1.16,1.16,0,0,0,.6-.15.94.94,0,0,0,.39-.37,1.16,1.16,0,0,0,.17-.41,2.15,2.15,0,0,0,0-.48V15.77a2.1,2.1,0,0,0,0-.52.7.7,0,0,0-.19-.36Z" style="fill:#fff"/><path id="path2233" d="M142.09,25.23l-2.78-7.59v7.59h-1.79V12.73h1.7L142,20.31V12.73h1.79v12.5Z" style="fill:#fff"/><path id="path2235" d="M35.08,42.48,37.88,30h1.55l2.8,12.51H40.31l-.5-2.69H37.49L37,42.48Zm2.73-4.35h1.68l-.84-4.55Z" style="fill:#fff"/><path id="path2237" d="M46.93,42.48l-2.78-7.6v7.6H42.36V30h1.7l2.76,7.58V30h1.79V42.48Z" style="fill:#fff"/><path id="path2239" d="M52.37,30a2.82,2.82,0,0,1,2.07.86,2.73,2.73,0,0,1,.88,2.06v6.49a3.06,3.06,0,0,1-.84,2.24,2.9,2.9,0,0,1-2.16.86H49.53V30Zm1.18,9.41V32.89a1.15,1.15,0,0,0-.39-.88,1.28,1.28,0,0,0-.92-.36h-.93v9.17h.88C53.09,40.82,53.55,40.34,53.55,39.38Z" style="fill:#fff"/><path id="path2241" d="M57.9,42.48V30h1.77V42.48Z" style="fill:#fff"/><path id="path2243" d="M65.1,42.48l-2.78-7.6v7.6H60.53V30h1.7L65,37.55V30h1.79V42.48Z" style="fill:#fff"/><path id="path2245" d="M67.34,42.48V30h5.34v1.68H69.12v3.76h3.11v1.68H69.12v5.39Z" style="fill:#fff"/><path id="path2247" d="M72.94,42.48V30h3.14a2.79,2.79,0,0,1,2.07.86A2.86,2.86,0,0,1,79,32.94V34.1a2.93,2.93,0,0,1-1.47,2.65l1.9,5.73h-1.9l-1.68-5.36H74.74v5.36Zm4-7.33a1.07,1.07,0,0,0,.22-.47,2.14,2.14,0,0,0,.08-.58V32.94A1.36,1.36,0,0,0,76.9,32a1.1,1.1,0,0,0-.89-.37H74.74v3.9H76a1.24,1.24,0,0,0,.93-.39Z" style="fill:#fff"/><path id="path2249" d="M79.2,42.48,82,30h1.55l2.8,12.51H84.42l-.5-2.69H81.6l-.52,2.69Zm2.72-4.35H83.6l-.84-4.55Z" style="fill:#fff"/><path id="path2251" d="M87.8,39.36v.32a.82.82,0,0,0,0,.23,1.52,1.52,0,0,0,.28.54,1,1,0,0,0,.93.37,1.58,1.58,0,0,0,.69-.15,1.1,1.1,0,0,0,.47-.43,1.12,1.12,0,0,0,.13-.39,2.38,2.38,0,0,0,0-.34V38.3a1.11,1.11,0,0,0-.15-.63,1.87,1.87,0,0,0-.68-.55c-.23-.12-.66-.29-1.27-.52a3.59,3.59,0,0,1-1.53-1.06,3,3,0,0,1-.61-2V33A3.06,3.06,0,0,1,87,30.8a2.77,2.77,0,0,1,2.12-.94,2.84,2.84,0,0,1,2.17.92A3.11,3.11,0,0,1,92.15,33v.56H90.36V33a1.66,1.66,0,0,0,0-.24,1.25,1.25,0,0,0,0-.21.69.69,0,0,0-.1-.22A2.61,2.61,0,0,0,90,32a1,1,0,0,0-.88-.37,1.14,1.14,0,0,0-.89.39,1.4,1.4,0,0,0-.34,1v.73a1.38,1.38,0,0,0,.11.59,1.69,1.69,0,0,0,.6.47l.45.21.76.28a3.72,3.72,0,0,1,1.61,1.06,2.86,2.86,0,0,1,.71,2v1A4.33,4.33,0,0,1,92,40.47a4.39,4.39,0,0,1-.77,1.3,2.61,2.61,0,0,1-2.18.82,2.66,2.66,0,0,1-2.35-1A3.8,3.8,0,0,1,86,39.36v-.44H87.8Z" style="fill:#fff"/><path id="path2253" d="M94,42.48V31.64H91.85V30h6v1.67H95.73V42.48Z" style="fill:#fff"/><path id="path2255" d="M98.19,42.48V30h3.14a2.79,2.79,0,0,1,2.07.86,2.9,2.9,0,0,1,.86,2.11V34.1a2.93,2.93,0,0,1-1.47,2.65l1.9,5.73h-1.9l-1.68-5.36H100v5.36Zm4-7.33a1.07,1.07,0,0,0,.22-.47,2.14,2.14,0,0,0,.08-.58V32.94a1.36,1.36,0,0,0-.32-.93,1.11,1.11,0,0,0-.9-.37H100v3.9h1.25a1.24,1.24,0,0,0,.93-.39Z" style="fill:#fff"/><path id="path2257" d="M110.09,41.17a3.19,3.19,0,0,1-1.07,1,2.79,2.79,0,0,1-2.2.28,4,4,0,0,1-.71-.28,3.73,3.73,0,0,1-.6-.41,1.94,1.94,0,0,1-.39-.5,3.75,3.75,0,0,1-.37-.92,4.44,4.44,0,0,1-.08-.84V30h1.79v9.8l0,.19a1.57,1.57,0,0,0,.28.52,1,1,0,0,0,.84.34.89.89,0,0,0,.8-.39,1.55,1.55,0,0,0,.28-.9V30h1.8v9.56a4,4,0,0,1-.1.86,2.77,2.77,0,0,1-.31.78Z" style="fill:#fff"/><path id="path2259" d="M117.29,39.33a6,6,0,0,1-.07,1,2.48,2.48,0,0,1-.38.94,2.44,2.44,0,0,1-.43.5,3,3,0,0,1-.56.41,3.18,3.18,0,0,1-.65.28,2.16,2.16,0,0,1-.69.11,3.38,3.38,0,0,1-1.53-.35,2.42,2.42,0,0,1-1-.9,3.21,3.21,0,0,1-.41-1,6.23,6.23,0,0,1-.08-1V32.89a3.87,3.87,0,0,1,.1-.94A2.9,2.9,0,0,1,112,31a2.68,2.68,0,0,1,1-.82,2.51,2.51,0,0,1,1.28-.36,2.94,2.94,0,0,1,3,3v.67h-1.77v-.67a1.32,1.32,0,0,0-.3-.88,1.14,1.14,0,0,0-1.66,0,1.36,1.36,0,0,0-.28.88v6.92a1.57,1.57,0,0,0,.26.64,1,1,0,0,0,.86.37.9.9,0,0,0,.84-.34,2.57,2.57,0,0,0,.24-.48,2.48,2.48,0,0,0,0-.45v-.63h1.77Z" style="fill:#fff"/><path id="path2261" d="M119.55,42.48V31.64h-2.11V30h6v1.67h-2.15V42.48Z" style="fill:#fff"/><path id="path2263" d="M129.15,41.17a3.07,3.07,0,0,1-1.06,1,2.66,2.66,0,0,1-1.42.39,2.63,2.63,0,0,1-.78-.11,4,4,0,0,1-.71-.28,3.33,3.33,0,0,1-.6-.41,1.94,1.94,0,0,1-.39-.5,3.75,3.75,0,0,1-.37-.92,4.44,4.44,0,0,1-.08-.84V30h1.79v9.8l0,.19a1.57,1.57,0,0,0,.28.52,1,1,0,0,0,.84.34.89.89,0,0,0,.8-.39,1.55,1.55,0,0,0,.28-.9V30h1.8v9.56a4,4,0,0,1-.1.86,2.52,2.52,0,0,1-.32.78Z" style="fill:#fff"/><path id="path2265" d="M130.42,42.48V30h3.14a2.79,2.79,0,0,1,2.07.86,2.86,2.86,0,0,1,.86,2.11V34.1A2.93,2.93,0,0,1,135,36.75l1.9,5.73H135l-1.68-5.36h-1.12v5.36Zm4-7.33a1.07,1.07,0,0,0,.22-.47,2.14,2.14,0,0,0,.08-.58V32.94a1.36,1.36,0,0,0-.32-.93,1.1,1.1,0,0,0-.89-.37h-1.27v3.9h1.25a1.24,1.24,0,0,0,.93-.39Z" style="fill:#fff"/><path id="path2267" d="M142.38,40.69v1.79H137V30h5.36v1.65H138.8v3.69h3.13V37H138.8v3.68Z" style="fill:#fff"/></g><g id="text6075-0-6-9-2-5-9-0-9"><path id="path2270" d="M15.24,27.11A4.16,4.16,0,0,1,14.83,26c0-.39,0-.95,0-1.7V18.18a4.87,4.87,0,0,1,.31-1.79,8.94,8.94,0,0,1,.54-1.07c.26-.42.61-.92,1-1.52q1.26-1.74,4.47-1.74a5.66,5.66,0,0,1,4.69,2,6.89,6.89,0,0,1,1.74,4.65v4.87a9.21,9.21,0,0,1-.71,3.48L21.22,42.25H16.35l5-12.59a8.52,8.52,0,0,1-1.78.27,4.92,4.92,0,0,1-2.64-.76,4.69,4.69,0,0,1-1.69-2.06Zm6-10.85a1.82,1.82,0,0,0-1.61.76,2.78,2.78,0,0,0-.54,1.74v4.87a2.81,2.81,0,0,0,.58,1.83,2,2,0,0,0,1.7.71,1.59,1.59,0,0,0,1.43-.67,3.21,3.21,0,0,0,.49-1.87V18.76A2.94,2.94,0,0,0,22.83,17a1.72,1.72,0,0,0-1.57-.71Z" style="fill:#fff"/></g><path id="path7454" d="M94.4,66.62v21L76.23,98.09,58.06,87.6v-21L76.23,56.13Z" style="fill:none;stroke:#fff;stroke-linejoin:round;stroke-width:2.5999999046325684px"/><path id="path7452" d="M112.72,98.17v21L94.55,129.64,76.38,119.15v-21L94.55,87.68Z" style="fill:none;stroke:#fff;stroke-linejoin:round;stroke-width:2.5999999046325684px"/><path id="path7450" d="M76.23,98.09v21L58.06,129.56,39.89,119.07v-21L58.06,87.6Z" style="fill:none;stroke:#fff;stroke-linejoin:round;stroke-width:2.5999999046325684px"/><path id="path7448" d="M58,129.76V87.4L76,77l36.69,21.18-36.34,21L58.06,108.58,58,129.76" style="fill:none;stroke:#fff;stroke-linejoin:round;stroke-width:2.5999999046325684px"/><path id="path7446" d="M76.38,76.79V98" style="fill:none;stroke:#fff;stroke-linejoin:round;stroke-width:2.5999999046325684px"/><path id="path7414-8" d="M76.08,77,94.46,66.35,76.38,55.91,58,66.52Z" style="fill:#fff;stroke:#fff;stroke-linejoin:round;stroke-width:2.5999999046325684px"/><path id="path7414-8-8" d="M58,108.61,76.38,98,58.29,87.57,39.92,98.18Z" style="fill:#fff;stroke:#fff;stroke-linejoin:round;stroke-width:2.5999999046325684px"/><path id="path7414-8-1" d="M76.17,119l18.38,10.61V108.76L76.17,98.16Z" style="fill:#fff;stroke:#fff;stroke-linejoin:round;stroke-width:2.5999999046325684px"/></g></g></svg>