<svg xmlns="http://www.w3.org/2000/svg" viewBox="0 0 148.09 148.33"><g id="Layer_2" data-name="Layer 2"><g id="svg2"><path id="rect8528-63-2-4-3-6-0-4-3" d="M.83,0H147.27a.83.83,0,0,1,.82.83V147.51a.82.82,0,0,1-.82.82H.83a.82.82,0,0,1-.83-.82V.83A.83.83,0,0,1,.83,0Z" style="fill:#8f1838;fill-rule:evenodd"/><g id="text6065-3-2-9-6-6-5-0"><path id="path2139" d="M42.81,13.07a2.86,2.86,0,0,1,2.07.86A2.74,2.74,0,0,1,45.75,16v6.5a3.08,3.08,0,0,1-.84,2.24,2.9,2.9,0,0,1-2.16.86H40V13.07ZM44,22.48V16a1.15,1.15,0,0,0-.39-.88,1.3,1.3,0,0,0-.92-.35h-.93v9.16h.88C43.53,23.91,44,23.44,44,22.48Z" style="fill:#fff"/><path id="path2141" d="M52.65,23.78v1.8H47.29V13.07h5.36v1.64H49.07v3.7H52.2v1.7H49.07v3.67Z" style="fill:#fff"/><path id="path2143" d="M59.2,22.42a6.17,6.17,0,0,1-.07,1,2.44,2.44,0,0,1-.38.93,2.48,2.48,0,0,1-.43.51,4.27,4.27,0,0,1-.56.41,3.85,3.85,0,0,1-.65.28,2.48,2.48,0,0,1-.69.11,3.26,3.26,0,0,1-1.53-.36,2.34,2.34,0,0,1-1-.89,3.3,3.3,0,0,1-.41-1,6.36,6.36,0,0,1-.08-1V16a3.73,3.73,0,0,1,.1-.93,2.84,2.84,0,0,1,1.4-1.74A2.61,2.61,0,0,1,56.2,13a2.94,2.94,0,0,1,3,3v.67H57.43V16a1.32,1.32,0,0,0-.3-.88,1.16,1.16,0,0,0-1.66,0,1.36,1.36,0,0,0-.28.88v6.93a1.59,1.59,0,0,0,.26.63,1,1,0,0,0,.86.37.92.92,0,0,0,.84-.33,2.9,2.9,0,0,0,.24-.49,2.45,2.45,0,0,0,0-.44V22H59.2Z" style="fill:#fff"/><path id="path2145" d="M65.76,23.78v1.8H60.4V13.07h5.36v1.64H62.18v3.7h3.13v1.7H62.18v3.67Z" style="fill:#fff"/><path id="path2147" d="M71.38,25.58,68.6,18v7.6H66.8V13.07h1.7l2.77,7.58V13.07h1.79V25.58Z" style="fill:#fff"/><path id="path2149" d="M75.59,25.58V14.73H73.48V13.07h6v1.66H77.36V25.58Z" style="fill:#fff"/><path id="path2151" d="M88.23,25.58,86.75,18l-1.43,7.62H83.65L81.84,13.07h1.91l.89,7.56,1.44-7.56h1.33l1.47,7.56.9-7.56h1.88L89.91,25.58Z" style="fill:#fff"/><path id="path2153" d="M92.8,14.25a3,3,0,0,1,1.08-.94A3,3,0,0,1,95.26,13a3,3,0,0,1,1.29.28,2.91,2.91,0,0,1,1,.76,2.83,2.83,0,0,1,.56,1,3.85,3.85,0,0,1,.15,1.1v6.37a3.73,3.73,0,0,1-.12,1,2.92,2.92,0,0,1-.44,1,3,3,0,0,1-2.41,1.27,3.43,3.43,0,0,1-.86-.11,3.83,3.83,0,0,1-.77-.34,3.69,3.69,0,0,1-.63-.47,2,2,0,0,1-.41-.54,3.47,3.47,0,0,1-.34-.93,5.08,5.08,0,0,1,0-.82V16.11a3.75,3.75,0,0,1,.11-1,2.94,2.94,0,0,1,.43-.87Zm3.47,1a1.13,1.13,0,0,0-1-.52,1.24,1.24,0,0,0-.64.19,1.1,1.1,0,0,0-.43.39,1.56,1.56,0,0,0-.14.45,1.87,1.87,0,0,0,0,.37v6.57a.82.82,0,0,0,0,.21,1.61,1.61,0,0,0,.3.61,1,1,0,0,0,.93.4,1.21,1.21,0,0,0,.6-.15,1.18,1.18,0,0,0,.39-.38,1.38,1.38,0,0,0,.17-.41,3,3,0,0,0,0-.48V16.11a3,3,0,0,0,0-.52.9.9,0,0,0-.19-.36Z" style="fill:#fff"/><path id="path2155" d="M99.8,25.58V13.07h3.14a2.79,2.79,0,0,1,2.07.86,2.87,2.87,0,0,1,.86,2.11v1.15a3,3,0,0,1-1.47,2.66l1.9,5.73h-1.9l-1.68-5.36H101.6v5.36Zm4-7.34a1,1,0,0,0,.22-.47,2,2,0,0,0,.08-.58V16a1.37,1.37,0,0,0-.32-.94,1.13,1.13,0,0,0-.89-.37H101.6v3.9h1.25a1.24,1.24,0,0,0,.93-.39Z" style="fill:#fff"/><path id="path2157" d="M111.67,25.58l-2-5.59-1,1.85v3.74h-1.77V13.07h1.79v5.75l2.67-5.75h1.77l-2.44,5,2.87,7.53Z" style="fill:#fff"/><path id="path2159" d="M115.37,25.58l2.8-12.51h1.55l2.8,12.51H120.6l-.51-2.69h-2.31l-.53,2.69Zm2.72-4.35h1.68l-.84-4.56Z" style="fill:#fff"/><path id="path2161" d="M128,25.58,125.22,18v7.6h-1.79V13.07h1.7l2.76,7.58V13.07h1.79V25.58Z" style="fill:#fff"/><path id="path2163" d="M133.78,13.07a2.82,2.82,0,0,1,2.07.86,2.71,2.71,0,0,1,.88,2.05v6.5a3.08,3.08,0,0,1-.84,2.24,2.91,2.91,0,0,1-2.17.86h-2.78V13.07ZM135,22.48V16a1.12,1.12,0,0,0-.4-.88,1.28,1.28,0,0,0-.91-.35h-.93v9.16h.87C134.5,23.91,135,23.44,135,22.48Z" style="fill:#fff"/><path id="path2165" d="M45.33,41v1.79H40V30.32h5.36V32H41.74v3.69h3.14v1.7H41.74V41Z" style="fill:#fff"/><path id="path2167" d="M51.8,39.67a5.86,5.86,0,0,1-.08,1,2.44,2.44,0,0,1-.37.94,2.79,2.79,0,0,1-.43.5,3,3,0,0,1-.56.41,3.44,3.44,0,0,1-.65.28,2.16,2.16,0,0,1-.69.11,3.32,3.32,0,0,1-1.54-.35,2.39,2.39,0,0,1-1-.9,3.3,3.3,0,0,1-.42-1,6.41,6.41,0,0,1-.07-1V33.23a4.48,4.48,0,0,1,.09-.94,3.19,3.19,0,0,1,.45-.91,2.75,2.75,0,0,1,1-.82,2.52,2.52,0,0,1,1.29-.36,2.94,2.94,0,0,1,3,3v.67H50v-.67a1.32,1.32,0,0,0-.3-.88,1,1,0,0,0-.84-.35,1,1,0,0,0-.82.35,1.42,1.42,0,0,0-.28.88v6.92a1.91,1.91,0,0,0,.26.64,1,1,0,0,0,.86.37q.65,0,.84-.33a2.47,2.47,0,0,0,.25-.49,2.64,2.64,0,0,0,0-.45v-.63H51.8Z" style="fill:#fff"/><path id="path2169" d="M53.63,31.49a3,3,0,0,1,1.08-.93,2.9,2.9,0,0,1,1.38-.36,3.11,3.11,0,0,1,1.29.28,3,3,0,0,1,1,.77,2.75,2.75,0,0,1,.56,1,3.8,3.8,0,0,1,.15,1.1v6.36a4.1,4.1,0,0,1-.11,1,2.92,2.92,0,0,1-.45,1,3,3,0,0,1-1,.89,2.74,2.74,0,0,1-1.42.37,3.07,3.07,0,0,1-.86-.11,3.71,3.71,0,0,1-.76-.33,3.92,3.92,0,0,1-.64-.47,2.27,2.27,0,0,1-.41-.54,3.28,3.28,0,0,1-.33-.93,5,5,0,0,1-.06-.83V33.36a4.22,4.22,0,0,1,.11-1,3.11,3.11,0,0,1,.43-.88Zm3.47,1a1.1,1.1,0,0,0-1-.52,1.18,1.18,0,0,0-.63.19,1,1,0,0,0-.43.39,1.33,1.33,0,0,0-.15.45,1.8,1.8,0,0,0,0,.37v6.57a1.5,1.5,0,0,0,0,.2,1.63,1.63,0,0,0,.3.62,1.07,1.07,0,0,0,.93.39,1.16,1.16,0,0,0,.6-.15.94.94,0,0,0,.39-.37,1.49,1.49,0,0,0,.17-.41,3,3,0,0,0,0-.49V33.36a2.76,2.76,0,0,0,0-.52.79.79,0,0,0-.19-.36Z" style="fill:#fff"/><path id="path2171" d="M65.12,42.82l-2.78-7.59v7.59H60.55V30.32h1.7L65,37.89V30.32H66.8v12.5Z" style="fill:#fff"/><path id="path2173" d="M68.44,31.49a2.93,2.93,0,0,1,1.08-.93,2.9,2.9,0,0,1,1.38-.36,3.11,3.11,0,0,1,1.29.28,3.06,3.06,0,0,1,1,.77,2.75,2.75,0,0,1,.56,1,3.8,3.8,0,0,1,.15,1.1v6.36a3.63,3.63,0,0,1-.12,1,2.87,2.87,0,0,1-.44,1,3,3,0,0,1-1,.89,2.76,2.76,0,0,1-1.42.37,3,3,0,0,1-.86-.11,4.06,4.06,0,0,1-.77-.33A4.3,4.3,0,0,1,68.7,42a2.27,2.27,0,0,1-.41-.54,3.73,3.73,0,0,1-.34-.93,6.6,6.6,0,0,1,0-.83V33.36a3.75,3.75,0,0,1,.11-1,3.11,3.11,0,0,1,.43-.88Zm3.47,1a1.11,1.11,0,0,0-1-.52,1.18,1.18,0,0,0-.63.19,1,1,0,0,0-.43.39,1.33,1.33,0,0,0-.15.45,1.8,1.8,0,0,0,0,.37v6.57a1.5,1.5,0,0,0,0,.2,1.63,1.63,0,0,0,.3.62,1.05,1.05,0,0,0,.93.39,1.21,1.21,0,0,0,.6-.15,1.07,1.07,0,0,0,.39-.37,1.49,1.49,0,0,0,.17-.41,3.19,3.19,0,0,0,0-.49V33.36a3,3,0,0,0,0-.52.9.9,0,0,0-.19-.36Z" style="fill:#fff"/><path id="path2175" d="M81.49,42.82V35.21L79.7,40.55h-.9L77,35.21v7.61H75.24V30.32h1.68L79.29,37l2.33-6.66h1.64v12.5Z" style="fill:#fff"/><path id="path2177" d="M84.34,42.82V30.32h1.78v12.5Z" style="fill:#fff"/><path id="path2179" d="M93.5,39.67a5.86,5.86,0,0,1-.08,1,2.44,2.44,0,0,1-.37.94,2.79,2.79,0,0,1-.43.5,3,3,0,0,1-.56.41,3.44,3.44,0,0,1-.65.28,2.17,2.17,0,0,1-.7.11,3.25,3.25,0,0,1-1.53-.35,2.49,2.49,0,0,1-1-.9,3.53,3.53,0,0,1-.41-1,6.41,6.41,0,0,1-.07-1V33.23a4.48,4.48,0,0,1,.09-.94,3.19,3.19,0,0,1,.45-.91,2.66,2.66,0,0,1,1-.82,2.52,2.52,0,0,1,1.29-.36,2.94,2.94,0,0,1,2.15.86,2.91,2.91,0,0,1,.86,2.17v.67H91.72v-.67a1.32,1.32,0,0,0-.3-.88,1,1,0,0,0-.84-.35,1,1,0,0,0-.82.35,1.42,1.42,0,0,0-.28.88v6.92a1.72,1.72,0,0,0,.26.64,1,1,0,0,0,.86.37q.65,0,.84-.33a2.47,2.47,0,0,0,.25-.49,2.64,2.64,0,0,0,0-.45v-.63H93.5Z" style="fill:#fff"/><path id="path2181" d="M102.36,41.52a3.13,3.13,0,0,1-1.1,1,3,3,0,0,1-1.48.37,3.11,3.11,0,0,1-1.38-.33,3.19,3.19,0,0,1-1-.82,3.31,3.31,0,0,1-.48-1,5,5,0,0,1-.11-1.14V33.38a5.07,5.07,0,0,1,.09-.94,5.63,5.63,0,0,1,.69-1.32,2.51,2.51,0,0,1,2.28-.92,2.86,2.86,0,0,1,1.4.36,2.75,2.75,0,0,1,1,.88,2.8,2.8,0,0,1,.45,1,4.23,4.23,0,0,1,.11,1v.52H101v-.52a2,2,0,0,0,0-.26,1.4,1.4,0,0,0,0-.23,1.71,1.71,0,0,0-.28-.54,1,1,0,0,0-.88-.37,1,1,0,0,0-1,.39,2,2,0,0,0-.26.58,1.85,1.85,0,0,0,0,.43V40a1.27,1.27,0,0,0,0,.22,1.82,1.82,0,0,0,.28.58,1,1,0,0,0,1,.39q.74,0,.93-.39a3.54,3.54,0,0,0,.17-.34,1.53,1.53,0,0,0,.08-.26.83.83,0,0,0,0-.22V37.45H99.58V35.88h3.21v3.75c0,.26,0,.49,0,.67a2.09,2.09,0,0,1-.08.47,1.32,1.32,0,0,1-.15.39,3,3,0,0,1-.18.36Z" style="fill:#fff"/><path id="path2183" d="M104.06,42.82V30.32h3.14a2.78,2.78,0,0,1,2.07.85,2.9,2.9,0,0,1,.86,2.11v1.16a2.92,2.92,0,0,1-1.48,2.65l1.91,5.73h-1.91L107,37.47h-1.12v5.35Zm4-7.33a1.19,1.19,0,0,0,.22-.47,2.08,2.08,0,0,0,.08-.58V33.28a1.36,1.36,0,0,0-.32-.93,1.11,1.11,0,0,0-.9-.37h-1.27v3.9h1.25a1.24,1.24,0,0,0,.94-.39Z" style="fill:#fff"/><path id="path2185" d="M111.62,31.49a2.86,2.86,0,0,1,1.08-.93,2.9,2.9,0,0,1,1.38-.36,3.11,3.11,0,0,1,1.29.28,2.93,2.93,0,0,1,1,.77,2.49,2.49,0,0,1,.56,1,3.8,3.8,0,0,1,.15,1.1v6.36a3.65,3.65,0,0,1-.11,1,2.73,2.73,0,0,1-.45,1,2.79,2.79,0,0,1-1,.89,2.7,2.7,0,0,1-1.41.37,3,3,0,0,1-.86-.11,3.45,3.45,0,0,1-1.4-.8,2,2,0,0,1-.41-.54,3.73,3.73,0,0,1-.34-.93,5,5,0,0,1-.06-.83V33.36a3.73,3.73,0,0,1,.12-1,2.87,2.87,0,0,1,.43-.88Zm3.47,1a1.11,1.11,0,0,0-1-.52,1.21,1.21,0,0,0-.64.19,1.1,1.1,0,0,0-.43.39,2,2,0,0,0-.15.45,2.73,2.73,0,0,0,0,.37v6.57a.71.71,0,0,0,0,.2,1.73,1.73,0,0,0,.29.62,1.08,1.08,0,0,0,.94.39,1.15,1.15,0,0,0,.59-.15,1,1,0,0,0,.4-.37,1.43,1.43,0,0,0,.16-.41,2.19,2.19,0,0,0,0-.49V33.36a2.1,2.1,0,0,0,0-.52.75.75,0,0,0-.18-.36Z" style="fill:#fff"/><path id="path2187" d="M124.42,42.82,123,35.21l-1.44,7.61h-1.66L118,30.32h1.9l.9,7.56,1.44-7.56h1.32l1.48,7.56.89-7.56h1.89l-1.76,12.5Z" style="fill:#fff"/><path id="path2189" d="M130.36,42.82V32h-2.11V30.32h6V32h-2.15V42.82Z" style="fill:#fff"/><path id="path2191" d="M135.16,42.82V30.32h1.77v5.33h2.28V30.32H141v12.5h-1.77V37.24h-2.28v5.58Z" style="fill:#fff"/></g><g id="text6075-0-6-9-2-5-9-0"><path id="path2194" d="M28.14,36.09v.31a5.33,5.33,0,0,1-.45,2.06,7.38,7.38,0,0,1-1.25,2,6.72,6.72,0,0,1-1.92,1.47,5.08,5.08,0,0,1-2.41.58H22a6.78,6.78,0,0,1-1.88-.27,8.73,8.73,0,0,1-1.7-.71,8.74,8.74,0,0,1-1.34-1,3.84,3.84,0,0,1-.84-1.21,8.46,8.46,0,0,1-.72-2.05,10.91,10.91,0,0,1-.13-1.7V30.37a4.76,4.76,0,0,1,2.14-3.93A5.21,5.21,0,0,1,15.37,22V18a4.68,4.68,0,0,1,.31-1.74,11.26,11.26,0,0,1,1.61-2.55q1.25-1.65,4.6-1.65a5.75,5.75,0,0,1,2.37.53,9.69,9.69,0,0,1,2.5,2,5.32,5.32,0,0,1,1.38,3.93v3.84A4.77,4.77,0,0,1,26,26.44a5,5,0,0,1,2.14,4.24ZM21.8,16.3a2,2,0,0,0-1.56.67,2.08,2.08,0,0,0-.63,1.52v3.84a3,3,0,0,0,.54,1.79,1.93,1.93,0,0,0,1.6.71,1.85,1.85,0,0,0,1.61-.67,2.93,2.93,0,0,0,.54-1.83V18.49A2.18,2.18,0,0,0,23.27,17,1.88,1.88,0,0,0,21.8,16.3Zm0,11.79a2.13,2.13,0,0,0-1.61.67,2.27,2.27,0,0,0-.58,1.61V35.6a3.25,3.25,0,0,0,.54,1.92,2,2,0,0,0,1.74.71,1.6,1.6,0,0,0,1.56-.76,3.75,3.75,0,0,0,.45-1.87V30.37a2.32,2.32,0,0,0-.58-1.61,1.87,1.87,0,0,0-1.52-.67Z" style="fill:#fff"/></g><path id="path7328" d="M109.29,54.33a.63.63,0,0,0-.19,0L96.88,57.63a.69.69,0,0,0-.31,1.15l2.64,2.64L73.13,87.53,62.74,77.14a2.5,2.5,0,0,0-3.53,0l-21,21,3.54,3.54L61,82.45,71.36,92.83a2.49,2.49,0,0,0,3.53,0L102.75,65l2.77,2.76a.66.66,0,0,0,.49.2.69.69,0,0,0,.66-.5l3.27-12.22a.69.69,0,0,0-.65-.87ZM102.75,72,86.29,88.5v40.24a1.9,1.9,0,0,0,1.91,1.91h14a1.9,1.9,0,0,0,1.91-1.91V73.39ZM60.48,90,42.66,107.83v20.91a1.91,1.91,0,0,0,1.91,1.91h14a1.9,1.9,0,0,0,1.91-1.91ZM82.29,92.5l-7.4,7.4a2.49,2.49,0,0,1-3.53,0L64.48,93v35.72a1.9,1.9,0,0,0,1.91,1.91h14a1.9,1.9,0,0,0,1.9-1.91Z" style="fill:#fff"/><path id="path7328-8" d="M109.29,54.33a.63.63,0,0,0-.19,0L96.88,57.63a.69.69,0,0,0-.31,1.15l2.64,2.64L73.13,87.53,62.74,77.14a2.5,2.5,0,0,0-3.53,0l-21,21,3.54,3.54L61,82.45,71.36,92.83a2.49,2.49,0,0,0,3.53,0L102.75,65l2.77,2.76a.66.66,0,0,0,.49.2.69.69,0,0,0,.66-.5l3.27-12.22a.69.69,0,0,0-.65-.87Z" style="fill:#fff"/></g></g></svg>